<svg viewBox="0 0 64 64" fill="#4F4F4F" xmlns="http://www.w3.org/2000/svg">
<circle class="st0" cx="32" cy="32" r="8"/>
<g>
<path class="st0" d="M12.2,51.8L15,49c-4.3-4.3-7-10.3-7-17c0-6.6,2.7-12.6,7-17l-2.8-2.8C7.1,17.3,4,24.3,4,32S7.1,46.7,12.2,51.8
z"/>
<path class="st0" d="M51.8,51.8C56.9,46.7,60,39.7,60,32s-3.1-14.7-8.2-19.8L49,15c4.3,4.3,7,10.3,7,17c0,6.6-2.7,12.6-7,17
L51.8,51.8z"/>
</g>
<g>
<path class="st0" d="M42.6,42.6l2.8,2.8C48.9,42,51,37.2,51,32s-2.1-10-5.6-13.4l-2.8,2.8C45.3,24.1,47,27.9,47,32
S45.3,39.9,42.6,42.6z"/>
<path class="st0" d="M21.4,42.6C18.7,39.9,17,36.1,17,32s1.7-7.9,4.4-10.6l-2.8-2.8C15.1,22,13,26.8,13,32s2.1,10,5.6,13.4
L21.4,42.6z"/>
</g>
</svg>
