<svg viewBox="0 0 1250 198" fill="none" xmlns="http://www.w3.org/2000/svg">
<g opacity="0.3">
<path d="M3.46094 1.48755V196.512" stroke="#F0F0F0"/>
<path d="M65.7637 1.48755V196.512" stroke="#F0F0F0"/>
<path d="M128.065 1.48755V196.512" stroke="#F0F0F0"/>
<path d="M189.379 1.48755V196.512" stroke="#F0F0F0"/>
<path d="M251.681 1.48755V196.512" stroke="#F0F0F0"/>
<path d="M313.983 1.48755V196.512" stroke="#F0F0F0"/>
<path d="M376.286 1.48755V196.512" stroke="#F0F0F0"/>
<path d="M438.588 1.48755V196.512" stroke="#F0F0F0"/>
<path d="M499.901 1.48755V196.512" stroke="#F0F0F0"/>
<path d="M562.203 1.48755V196.512" stroke="#F0F0F0"/>
<path d="M624.506 1.48755V196.512" stroke="#F0F0F0"/>
<path d="M686.808 1.48755V196.512" stroke="#F0F0F0"/>
<path d="M749.11 1.48755V196.512" stroke="#F0F0F0"/>
<path d="M810.423 1.48755V196.512" stroke="#F0F0F0"/>
<path d="M872.726 1.48755V196.512" stroke="#F0F0F0"/>
<path d="M935.028 1.48755V196.512" stroke="#F0F0F0"/>
<path d="M997.33 1.48755V196.512" stroke="#F0F0F0"/>
<path d="M1059.63 1.48755V196.512" stroke="#F0F0F0"/>
<path d="M1120.95 1.48755V196.512" stroke="#F0F0F0"/>
<path d="M1183.25 1.48755V196.512" stroke="#F0F0F0"/>
<path d="M1246.54 1.48755V196.512" stroke="#F0F0F0"/>
<path d="M3.95557 197H1246.04" stroke="#F0F0F0"/>
<path d="M3.95557 157.995H1246.04" stroke="#F0F0F0"/>
<path d="M3.95557 118.99H1246.04" stroke="#F0F0F0"/>
<path d="M3.95557 79.9851H1246.04" stroke="#F0F0F0"/>
<path d="M3.95557 40.9801H1246.04" stroke="#F0F0F0"/>
<path d="M3.95557 1H1246.04" stroke="#F0F0F0"/>
<path d="M3.95557 197H1246.04" stroke="#F0F0F0"/>
<path d="M3.46094 1.48755V196.512" stroke="#F0F0F0"/>
<path d="M3.95557 77.9373C3.95557 77.9373 41.2182 144.714 66.06 144.714C90.9018 144.714 103.323 141.157 128.164 139.253C153.006 137.35 165.427 139.253 190.269 135.197C215.111 131.14 227.532 90.2629 252.373 90.2629C277.215 90.2629 289.636 134.729 314.478 135.041C339.32 135.353 351.74 135.353 376.582 135.353C401.424 135.353 413.845 58.5909 438.687 58.5909C463.528 58.5909 475.949 125.523 500.791 139.409C525.633 153.295 538.054 153.295 562.895 153.295C587.737 153.295 600.158 94.1634 625 94.1634C649.842 94.1634 662.263 144.09 687.104 144.09C711.946 144.09 724.367 43.925 749.209 43.925C774.051 43.925 786.471 86.6745 811.313 103.525C836.155 120.375 848.576 123.963 873.418 128.176C898.259 132.388 910.68 132.388 935.522 132.388C960.364 132.388 972.785 110.327 997.626 95.2556C1022.47 80.184 1034.89 67.6088 1059.73 57.0307C1084.57 46.4525 1096.99 42.3648 1121.84 42.3648C1146.68 42.3648 1159.1 66.0798 1183.94 87.4546C1208.78 108.829 1246.04 149.238 1246.04 149.238" stroke="#DDE6EA" stroke-width="4"/>
<path d="M3.9557 81.4477C2.90675 81.4477 1.90075 81.0369 1.15895 80.3056C0.417138 79.5744 0.00026236 78.5825 1.23794e-07 77.5482C-0.000262112 76.5139 0.41611 75.5218 1.15755 74.7902C1.89899 74.0585 2.90477 73.6472 3.95372 73.6467C5.00266 73.6462 6.00887 74.0565 6.75105 74.7874C7.49323 75.5183 7.9106 76.51 7.91139 77.5443C7.91218 78.5786 7.49631 79.5709 6.75524 80.3029C6.01418 81.0349 5.0086 81.4467 3.95965 81.4477H3.9557Z" fill="#DDE6EA"/>
<path d="M65.2692 148.731C64.2202 148.731 63.2142 148.321 62.4724 147.589C61.7306 146.858 61.3137 145.866 61.3135 144.832C61.3132 143.798 61.7296 142.805 62.471 142.074C63.2125 141.342 64.2183 140.931 65.2672 140.93C66.3161 140.93 67.3223 141.34 68.0645 142.071C68.8067 142.802 69.2241 143.794 69.2249 144.828C69.2257 145.862 68.8098 146.855 68.0687 147.587C67.3277 148.319 66.3221 148.73 65.2731 148.731H65.2692Z" fill="#DDE6EA"/>
<path d="M127.571 142.881C126.522 142.881 125.516 142.47 124.774 141.739C124.032 141.007 123.615 140.015 123.615 138.981C123.615 137.947 124.031 136.955 124.773 136.223C125.514 135.491 126.52 135.08 127.569 135.08C128.618 135.079 129.624 135.489 130.366 136.22C131.108 136.951 131.526 137.943 131.527 138.977C131.527 140.011 131.112 141.004 130.37 141.736C129.629 142.468 128.624 142.88 127.575 142.881H127.571Z" fill="#DDE6EA"/>
<path d="M189.874 138.98C188.825 138.98 187.819 138.569 187.077 137.838C186.335 137.107 185.918 136.115 185.918 135.081C185.918 134.046 186.334 133.054 187.076 132.323C187.817 131.591 188.823 131.18 189.872 131.179C190.921 131.179 191.927 131.589 192.669 132.32C193.411 133.051 193.829 134.042 193.829 135.077C193.83 136.111 193.414 137.103 192.673 137.835C191.932 138.567 190.927 138.979 189.878 138.98H189.874Z" fill="#DDE6EA"/>
<path d="M252.175 94.1244C251.126 94.1244 250.12 93.7136 249.379 92.9823C248.637 92.2511 248.22 91.2592 248.22 90.2249C248.219 89.1906 248.636 88.1985 249.377 87.4669C250.119 86.7352 251.125 86.3239 252.173 86.3234C253.222 86.3229 254.229 86.7332 254.971 87.4641C255.713 88.195 256.13 89.1867 256.131 90.221C256.132 91.2553 255.716 92.2476 254.975 92.9796C254.234 93.7116 253.228 94.1234 252.179 94.1244H252.175Z" fill="#DDE6EA"/>
<path d="M314.478 138.98C313.429 138.98 312.423 138.569 311.681 137.838C310.94 137.107 310.523 136.115 310.522 135.081C310.522 134.046 310.939 133.054 311.68 132.323C312.421 131.591 313.427 131.18 314.476 131.179C315.525 131.179 316.531 131.589 317.274 132.32C318.016 133.051 318.433 134.042 318.434 135.077C318.435 136.111 318.019 137.103 317.278 137.835C316.537 138.567 315.531 138.979 314.482 138.98H314.478Z" fill="#DDE6EA"/>
<path d="M375.791 138.98C374.742 138.98 373.736 138.569 372.994 137.838C372.253 137.107 371.836 136.115 371.835 135.081C371.835 134.046 372.252 133.054 372.993 132.323C373.734 131.591 374.74 131.18 375.789 131.179C376.838 131.179 377.844 131.589 378.586 132.32C379.329 133.051 379.746 134.042 379.747 135.077C379.748 136.111 379.332 137.103 378.591 137.835C377.85 138.567 376.844 138.979 375.795 138.98H375.791Z" fill="#DDE6EA"/>
<path d="M438.093 62.9204C437.044 62.9204 436.038 62.5096 435.297 61.7783C434.555 61.047 434.138 60.0552 434.138 59.0209C434.137 57.9866 434.554 56.9945 435.295 56.2628C436.037 55.5312 437.042 55.1199 438.091 55.1194C439.14 55.1189 440.147 55.5292 440.889 56.2601C441.631 56.991 442.048 57.9827 442.049 59.017C442.05 60.0513 441.634 61.0435 440.893 61.7755C440.152 62.5075 439.146 62.9193 438.097 62.9204L438.093 62.9204Z" fill="#DDE6EA"/>
<path d="M500.396 142.881C499.347 142.881 498.341 142.47 497.599 141.739C496.857 141.007 496.44 140.015 496.44 138.981C496.44 137.947 496.856 136.955 497.597 136.223C498.339 135.491 499.345 135.08 500.394 135.08C501.443 135.079 502.449 135.489 503.191 136.22C503.933 136.951 504.351 137.943 504.351 138.977C504.352 140.011 503.936 141.004 503.195 141.736C502.454 142.468 501.449 142.88 500.4 142.881H500.396Z" fill="#DDE6EA"/>
<path d="M562.698 157.507C561.649 157.507 560.643 157.097 559.901 156.365C559.159 155.634 558.742 154.642 558.742 153.608C558.742 152.574 559.158 151.582 559.9 150.85C560.641 150.118 561.647 149.707 562.696 149.706C563.745 149.706 564.751 150.116 565.493 150.847C566.235 151.578 566.653 152.57 566.654 153.604C566.654 154.638 566.238 155.631 565.497 156.363C564.756 157.095 563.751 157.506 562.702 157.507H562.698Z" fill="#DDE6EA"/>
<path d="M625 98.0249C623.951 98.0249 622.945 97.6141 622.203 96.8828C621.462 96.1515 621.045 95.1597 621.044 94.1253C621.044 93.091 621.461 92.099 622.202 91.3673C622.943 90.6357 623.949 90.2244 624.998 90.2239C626.047 90.2234 627.053 90.6337 627.795 91.3646C628.538 92.0955 628.955 93.0871 628.956 94.1215C628.957 95.1558 628.541 96.148 627.8 96.88C627.059 97.612 626.053 98.0238 625.004 98.0249H625Z" fill="#DDE6EA"/>
<path d="M686.313 147.756C685.264 147.756 684.258 147.345 683.516 146.614C682.775 145.883 682.358 144.891 682.357 143.857C682.357 142.822 682.774 141.83 683.515 141.099C684.256 140.367 685.262 139.956 686.311 139.955C687.36 139.955 688.366 140.365 689.108 141.096C689.851 141.827 690.268 142.818 690.269 143.853C690.27 144.887 689.854 145.879 689.113 146.611C688.372 147.343 687.366 147.755 686.317 147.756H686.313Z" fill="#DDE6EA"/>
<path d="M748.615 48.2935C747.566 48.2935 746.56 47.8827 745.819 47.1515C745.077 46.4202 744.66 45.4283 744.66 44.394C744.659 43.3597 745.076 42.3677 745.817 41.636C746.559 40.9044 747.564 40.4931 748.613 40.4926C749.662 40.492 750.669 40.9024 751.411 41.6333C752.153 42.3642 752.57 43.3558 752.571 44.3901C752.572 45.4244 752.156 46.4167 751.415 47.1487C750.674 47.8807 749.668 48.2925 748.619 48.2935L748.615 48.2935Z" fill="#DDE6EA"/>
<path d="M810.918 107.776C809.869 107.776 808.863 107.365 808.121 106.634C807.379 105.903 806.962 104.911 806.962 103.877C806.962 102.842 807.378 101.85 808.119 101.119C808.861 100.387 809.867 99.9756 810.916 99.9751C811.965 99.9746 812.971 100.385 813.713 101.116C814.455 101.847 814.873 102.838 814.873 103.873C814.874 104.907 814.458 105.899 813.717 106.631C812.976 107.363 811.971 107.775 810.922 107.776H810.918Z" fill="#DDE6EA"/>
<path d="M873.22 132.154C872.171 132.154 871.165 131.743 870.423 131.012C869.681 130.281 869.264 129.289 869.264 128.255C869.264 127.22 869.68 126.228 870.422 125.497C871.163 124.765 872.169 124.354 873.218 124.353C874.267 124.353 875.273 124.763 876.015 125.494C876.757 126.225 877.175 127.217 877.176 128.251C877.176 129.285 876.76 130.277 876.019 131.009C875.278 131.741 874.273 132.153 873.224 132.154H873.22Z" fill="#DDE6EA"/>
<path d="M935.522 136.055C934.473 136.055 933.467 135.644 932.725 134.913C931.984 134.181 931.567 133.19 931.566 132.155C931.566 131.121 931.983 130.129 932.724 129.397C933.465 128.666 934.471 128.254 935.52 128.254C936.569 128.253 937.575 128.664 938.317 129.394C939.06 130.125 939.477 131.117 939.478 132.151C939.479 133.186 939.063 134.178 938.322 134.91C937.581 135.642 936.575 136.054 935.526 136.055H935.522Z" fill="#DDE6EA"/>
<path d="M996.836 99C995.787 99 994.781 98.5892 994.039 97.8579C993.297 97.1266 992.88 96.1348 992.88 95.1004C992.88 94.0661 993.296 93.0741 994.037 92.3424C994.779 91.6108 995.785 91.1995 996.834 91.199C997.883 91.1985 998.889 91.6088 999.631 92.3397C1000.37 93.0706 1000.79 94.0622 1000.79 95.0965C1000.79 96.1309 1000.38 97.1231 999.635 97.8551C998.894 98.5871 997.889 98.9989 996.84 99H996.836Z" fill="#DDE6EA"/>
<path d="M1059.14 60.9701C1058.09 60.9701 1057.08 60.5593 1056.34 59.828C1055.6 59.0968 1055.18 58.1049 1055.18 57.0706C1055.18 56.0363 1055.6 55.0442 1056.34 54.3126C1057.08 53.581 1058.09 53.1696 1059.14 53.1691C1060.18 53.1686 1061.19 53.5789 1061.93 54.3098C1062.68 55.0407 1063.09 56.0324 1063.09 57.0667C1063.09 58.101 1062.68 59.0933 1061.94 59.8253C1061.2 60.5573 1060.19 60.9691 1059.14 60.9701L1059.14 60.9701Z" fill="#DDE6EA"/>
<path d="M1121.44 46.3433C1120.39 46.3433 1119.39 45.9325 1118.64 45.2012C1117.9 44.4699 1117.48 43.4781 1117.48 42.4438C1117.48 41.4095 1117.9 40.4174 1118.64 39.6858C1119.38 38.9541 1120.39 38.5428 1121.44 38.5423C1122.49 38.5418 1123.49 38.9521 1124.24 39.683C1124.98 40.4139 1125.39 41.4056 1125.4 42.4399C1125.4 43.4742 1124.98 44.4664 1124.24 45.1984C1123.5 45.9305 1122.49 46.3423 1121.44 46.3433L1121.44 46.3433Z" fill="#DDE6EA"/>
<path d="M1183.74 91.199C1182.69 91.199 1181.69 90.7882 1180.95 90.0569C1180.2 89.3256 1179.79 88.3338 1179.79 87.2995C1179.79 86.2652 1180.2 85.2731 1180.94 84.5415C1181.69 83.8098 1182.69 83.3985 1183.74 83.398C1184.79 83.3975 1185.8 83.8078 1186.54 84.5387C1187.28 85.2696 1187.7 86.2613 1187.7 87.2956C1187.7 88.3299 1187.28 89.3222 1186.54 90.0542C1185.8 90.7862 1184.79 91.198 1183.75 91.199H1183.74Z" fill="#DDE6EA"/>
<path d="M1246.04 153.607C1245 153.607 1243.99 153.196 1243.25 152.465C1242.51 151.734 1242.09 150.742 1242.09 149.708C1242.09 148.673 1242.5 147.681 1243.25 146.949C1243.99 146.218 1244.99 145.807 1246.04 145.806C1247.09 145.806 1248.1 146.216 1248.84 146.947C1249.58 147.678 1250 148.669 1250 149.704C1250 150.738 1249.59 151.73 1248.84 152.462C1248.1 153.194 1247.1 153.606 1246.05 153.607H1246.04Z" fill="#DDE6EA"/>
<path d="M3.95557 125.367C3.95557 125.367 41.2182 145.962 66.06 145.962C90.9018 145.962 103.323 135.509 128.164 135.509C153.006 135.509 165.427 148.77 190.269 148.77C215.111 148.77 227.532 122.715 252.373 108.517C277.215 94.3195 289.636 77.7813 314.478 77.7813C339.32 77.7813 351.74 117.878 376.582 117.878C401.424 117.878 413.845 75.441 438.687 75.441C463.528 75.441 475.949 91.6671 500.791 94.7875C525.633 97.9079 538.054 97.9079 562.895 97.9079C587.737 97.9079 600.158 76.2211 625 73.2568C649.842 70.2924 662.263 70.2924 687.104 70.2924C711.946 70.2924 724.367 70.2924 749.209 79.9656C774.051 89.6389 786.471 158.6 811.313 158.6C836.155 158.6 848.576 106.832 873.418 84.4902C898.259 62.1482 910.68 46.8894 935.522 46.8894C960.364 46.8894 972.785 135.977 997.626 135.977C1022.47 135.977 1034.89 85.4263 1059.73 85.4263C1084.57 85.4263 1096.99 153.139 1121.84 153.139C1146.68 153.139 1159.1 124.65 1183.94 109.609C1208.78 94.5691 1246.04 77.9374 1246.04 77.9374" stroke="#A1B7C7" stroke-width="4"/>
<path d="M3.9557 129.229C2.90675 129.229 1.90075 128.818 1.15895 128.087C0.417138 127.355 0.00026236 126.364 1.23794e-07 125.329C-0.000262112 124.295 0.41611 123.303 1.15755 122.571C1.89899 121.84 2.90477 121.428 3.95372 121.428C5.00266 121.427 6.00887 121.838 6.75105 122.569C7.49323 123.299 7.9106 124.291 7.91139 125.325C7.91218 126.36 7.49631 127.352 6.75524 128.084C6.01418 128.816 5.0086 129.228 3.95965 129.229H3.9557Z" fill="#A1B7C7"/>
<path d="M65.2692 149.707C64.2202 149.707 63.2142 149.296 62.4724 148.564C61.7306 147.833 61.3137 146.841 61.3135 145.807C61.3132 144.773 61.7296 143.781 62.471 143.049C63.2125 142.317 64.2183 141.906 65.2672 141.906C66.3161 141.905 67.3223 142.315 68.0645 143.046C68.8067 143.777 69.2241 144.769 69.2249 145.803C69.2257 146.837 68.8098 147.83 68.0687 148.562C67.3277 149.294 66.3221 149.705 65.2731 149.707H65.2692Z" fill="#A1B7C7"/>
<path d="M127.571 138.98C126.522 138.98 125.516 138.569 124.774 137.838C124.032 137.107 123.615 136.115 123.615 135.081C123.615 134.046 124.031 133.054 124.773 132.323C125.514 131.591 126.52 131.18 127.569 131.179C128.618 131.179 129.624 131.589 130.366 132.32C131.108 133.051 131.526 134.042 131.527 135.077C131.527 136.111 131.112 137.103 130.37 137.835C129.629 138.567 128.624 138.979 127.575 138.98H127.571Z" fill="#A1B7C7"/>
<path d="M189.874 152.632C188.825 152.632 187.819 152.221 187.077 151.49C186.335 150.759 185.918 149.767 185.918 148.732C185.918 147.698 186.334 146.706 187.076 145.974C187.817 145.243 188.823 144.831 189.872 144.831C190.921 144.83 191.927 145.241 192.669 145.972C193.411 146.702 193.829 147.694 193.829 148.728C193.83 149.763 193.414 150.755 192.673 151.487C191.932 152.219 190.927 152.631 189.878 152.632H189.874Z" fill="#A1B7C7"/>
<path d="M252.175 112.652C251.126 112.652 250.12 112.241 249.379 111.51C248.637 110.778 248.22 109.787 248.22 108.752C248.219 107.718 248.636 106.726 249.377 105.994C250.119 105.263 251.125 104.851 252.173 104.851C253.222 104.85 254.229 105.261 254.971 105.991C255.713 106.722 256.13 107.714 256.131 108.748C256.132 109.783 255.716 110.775 254.975 111.507C254.234 112.239 253.228 112.651 252.179 112.652H252.175Z" fill="#A1B7C7"/>
<path d="M314.478 81.4477C313.429 81.4477 312.423 81.0369 311.681 80.3056C310.94 79.5744 310.523 78.5825 310.522 77.5482C310.522 76.5139 310.939 75.5218 311.68 74.7902C312.421 74.0585 313.427 73.6472 314.476 73.6467C315.525 73.6462 316.531 74.0565 317.274 74.7874C318.016 75.5183 318.433 76.51 318.434 77.5443C318.435 78.5786 318.019 79.5709 317.278 80.3029C316.537 81.0349 315.531 81.4467 314.482 81.4477H314.478Z" fill="#A1B7C7"/>
<path d="M375.791 121.428C374.742 121.428 373.736 121.017 372.994 120.286C372.253 119.554 371.836 118.563 371.835 117.528C371.835 116.494 372.252 115.502 372.993 114.77C373.734 114.039 374.74 113.627 375.789 113.627C376.838 113.626 377.844 114.037 378.586 114.768C379.329 115.498 379.746 116.49 379.747 117.524C379.748 118.559 379.332 119.551 378.591 120.283C377.85 121.015 376.844 121.427 375.795 121.428H375.791Z" fill="#A1B7C7"/>
<path d="M438.093 79.4975C437.044 79.4975 436.038 79.0867 435.297 78.3554C434.555 77.6241 434.138 76.6323 434.138 75.5979C434.137 74.5636 434.554 73.5716 435.295 72.8399C436.037 72.1083 437.042 71.697 438.091 71.6965C439.14 71.696 440.147 72.1063 440.889 72.8372C441.631 73.5681 442.048 74.5597 442.049 75.594C442.05 76.6284 441.634 77.6206 440.893 78.3526C440.152 79.0846 439.146 79.4964 438.097 79.4975H438.093Z" fill="#A1B7C7"/>
<path d="M500.396 99C499.347 99 498.341 98.5892 497.599 97.8579C496.857 97.1266 496.44 96.1348 496.44 95.1004C496.44 94.0661 496.856 93.0741 497.597 92.3424C498.339 91.6108 499.345 91.1995 500.394 91.199C501.443 91.1985 502.449 91.6088 503.191 92.3397C503.933 93.0706 504.351 94.0622 504.351 95.0965C504.352 96.1309 503.936 97.1231 503.195 97.8551C502.454 98.5871 501.449 98.9989 500.4 99H500.396Z" fill="#A1B7C7"/>
<path d="M562.698 101.925C561.649 101.925 560.643 101.515 559.901 100.783C559.159 100.052 558.742 99.0602 558.742 98.0259C558.742 96.9916 559.158 95.9995 559.9 95.2679C560.641 94.5362 561.647 94.1249 562.696 94.1244C563.745 94.1239 564.751 94.5342 565.493 95.2651C566.235 95.996 566.653 96.9877 566.654 98.022C566.654 99.0563 566.238 100.049 565.497 100.781C564.756 101.513 563.751 101.924 562.702 101.925H562.698Z" fill="#A1B7C7"/>
<path d="M625 77.5472C623.951 77.5472 622.945 77.1364 622.203 76.4051C621.462 75.6739 621.045 74.682 621.044 73.6477C621.044 72.6134 621.461 71.6213 622.202 70.8897C622.943 70.158 623.949 69.7467 624.998 69.7462C626.047 69.7457 627.053 70.156 627.795 70.8869C628.538 71.6178 628.955 72.6095 628.956 73.6438C628.957 74.6781 628.541 75.6704 627.8 76.4024C627.059 77.1344 626.053 77.5462 625.004 77.5472H625Z" fill="#A1B7C7"/>
<path d="M686.313 74.6219C685.264 74.6219 684.258 74.2111 683.516 73.4798C682.775 72.7486 682.358 71.7567 682.357 70.7224C682.357 69.6881 682.774 68.696 683.515 67.9644C684.256 67.2327 685.262 66.8214 686.311 66.8209C687.36 66.8204 688.366 67.2307 689.108 67.9616C689.851 68.6925 690.268 69.6842 690.269 70.7185C690.27 71.7528 689.854 72.7451 689.113 73.4771C688.372 74.2091 687.366 74.6209 686.317 74.6219H686.313Z" fill="#A1B7C7"/>
<path d="M748.615 83.398C747.566 83.398 746.56 82.9872 745.819 82.2559C745.077 81.5246 744.66 80.5328 744.66 79.4985C744.659 78.4642 745.076 77.4721 745.817 76.7404C746.559 76.0088 747.564 75.5975 748.613 75.597C749.662 75.5965 750.669 76.0068 751.411 76.7377C752.153 77.4686 752.57 78.4603 752.571 79.4946C752.572 80.5289 752.156 81.5211 751.415 82.2531C750.674 82.9851 749.668 83.3969 748.619 83.398H748.615Z" fill="#A1B7C7"/>
<path d="M810.918 162.383C809.869 162.383 808.863 161.972 808.121 161.241C807.379 160.51 806.962 159.518 806.962 158.484C806.962 157.449 807.378 156.457 808.119 155.726C808.861 154.994 809.867 154.583 810.916 154.582C811.965 154.582 812.971 154.992 813.713 155.723C814.455 156.454 814.873 157.445 814.873 158.48C814.874 159.514 814.458 160.506 813.717 161.238C812.976 161.97 811.971 162.382 810.922 162.383H810.918Z" fill="#A1B7C7"/>
<path d="M873.22 88.2737C872.171 88.2737 871.165 87.8628 870.423 87.1316C869.681 86.4003 869.264 85.4084 869.264 84.3741C869.264 83.3398 869.68 82.3478 870.422 81.6161C871.163 80.8845 872.169 80.4732 873.218 80.4727C874.267 80.4721 875.273 80.8825 876.015 81.6134C876.757 82.3443 877.175 83.3359 877.176 84.3702C877.176 85.4045 876.76 86.3968 876.019 87.1288C875.278 87.8608 874.273 88.2726 873.224 88.2737H873.22Z" fill="#A1B7C7"/>
<path d="M935.522 51.2189C934.473 51.2189 933.467 50.8081 932.725 50.0768C931.984 49.3455 931.567 48.3537 931.566 47.3194C931.566 46.2851 931.983 45.293 932.724 44.5614C933.465 43.8297 934.471 43.4184 935.52 43.4179C936.569 43.4174 937.575 43.8277 938.317 44.5586C939.06 45.2895 939.477 46.2812 939.478 47.3155C939.479 48.3498 939.063 49.3421 938.322 50.0741C937.581 50.8061 936.575 51.2179 935.526 51.2189L935.522 51.2189Z" fill="#A1B7C7"/>
<path d="M996.836 139.955C995.787 139.955 994.781 139.544 994.039 138.813C993.297 138.082 992.88 137.09 992.88 136.056C992.88 135.021 993.296 134.029 994.037 133.298C994.779 132.566 995.785 132.155 996.834 132.154C997.883 132.154 998.889 132.564 999.631 133.295C1000.37 134.026 1000.79 135.017 1000.79 136.052C1000.79 137.086 1000.38 138.078 999.635 138.81C998.894 139.542 997.889 139.954 996.84 139.955H996.836Z" fill="#A1B7C7"/>
<path d="M1059.14 89.2487C1058.09 89.2487 1057.08 88.8379 1056.34 88.1067C1055.6 87.3754 1055.18 86.3835 1055.18 85.3492C1055.18 84.3149 1055.6 83.3229 1056.34 82.5912C1057.08 81.8596 1058.09 81.4483 1059.14 81.4478C1060.18 81.4472 1061.19 81.8576 1061.93 82.5885C1062.68 83.3194 1063.09 84.311 1063.09 85.3453C1063.09 86.3796 1062.68 87.3719 1061.94 88.1039C1061.2 88.8359 1060.19 89.2477 1059.14 89.2487H1059.14Z" fill="#A1B7C7"/>
<path d="M1121.44 157.507C1120.39 157.507 1119.39 157.097 1118.64 156.365C1117.9 155.634 1117.48 154.642 1117.48 153.608C1117.48 152.574 1117.9 151.582 1118.64 150.85C1119.38 150.118 1120.39 149.707 1121.44 149.706C1122.49 149.706 1123.49 150.116 1124.24 150.847C1124.98 151.578 1125.39 152.57 1125.4 153.604C1125.4 154.638 1124.98 155.631 1124.24 156.363C1123.5 157.095 1122.49 157.506 1121.44 157.507H1121.44Z" fill="#A1B7C7"/>
<path d="M1183.74 113.627C1182.69 113.627 1181.69 113.216 1180.95 112.485C1180.2 111.754 1179.79 110.762 1179.79 109.727C1179.79 108.693 1180.2 107.701 1180.94 106.969C1181.69 106.238 1182.69 105.826 1183.74 105.826C1184.79 105.825 1185.8 106.236 1186.54 106.967C1187.28 107.697 1187.7 108.689 1187.7 109.723C1187.7 110.758 1187.28 111.75 1186.54 112.482C1185.8 113.214 1184.79 113.626 1183.75 113.627H1183.74Z" fill="#A1B7C7"/>
<path d="M1246.04 81.4477C1245 81.4477 1243.99 81.0369 1243.25 80.3056C1242.51 79.5744 1242.09 78.5825 1242.09 77.5482C1242.09 76.5139 1242.5 75.5218 1243.25 74.7902C1243.99 74.0585 1244.99 73.6472 1246.04 73.6467C1247.09 73.6462 1248.1 74.0565 1248.84 74.7874C1249.58 75.5183 1250 76.51 1250 77.5443C1250 78.5786 1249.59 79.5709 1248.84 80.3029C1248.1 81.0349 1247.1 81.4467 1246.05 81.4477H1246.04Z" fill="#A1B7C7"/>
<path d="M3.95557 130.36C3.95557 130.36 41.2182 89.1707 66.06 89.1707C90.9018 89.1707 103.323 102.245 128.164 110.545C153.006 118.846 165.427 130.672 190.269 130.672C215.111 130.672 227.532 104.461 252.373 104.461C277.215 104.461 289.636 116.318 314.478 116.318C339.32 116.318 351.74 45.7972 376.582 45.7972C401.424 45.7972 413.845 63.1154 438.687 71.0724C463.528 79.0294 475.949 85.5822 500.791 85.5822C525.633 85.5822 538.054 74.1928 562.895 74.1928C587.737 74.1928 600.158 79.1854 625 79.1854C649.842 79.1854 662.263 46.1092 687.104 46.1092C711.946 46.1092 724.367 46.1092 749.209 59.5269C774.051 72.9446 786.471 136.289 811.313 136.289C836.155 136.289 848.576 129.58 873.418 122.091C898.259 114.602 910.68 108.923 935.522 98.8439C960.364 88.765 972.785 71.6965 997.626 71.6965C1022.47 71.6965 1034.89 90.1692 1059.73 104.461C1084.57 118.752 1096.99 143.154 1121.84 143.154C1146.68 143.154 1159.1 112.418 1183.94 92.2911C1208.78 72.1645 1246.04 42.5208 1246.04 42.5208" stroke="#B8B7BB" stroke-width="4"/>
<path d="M3.9557 134.105C2.90675 134.105 1.90075 133.694 1.15895 132.962C0.417138 132.231 0.00026236 131.239 1.23794e-07 130.205C-0.000262112 129.171 0.41611 128.179 1.15755 127.447C1.89899 126.715 2.90477 126.304 3.95372 126.304C5.00266 126.303 6.00887 126.713 6.75105 127.444C7.49323 128.175 7.9106 129.167 7.91139 130.201C7.91218 131.235 7.49631 132.228 6.75524 132.96C6.01418 133.692 5.0086 134.103 3.95965 134.105H3.9557Z" fill="#B8B7BB"/>
<path d="M65.2692 93.1493C64.2202 93.1493 63.2142 92.7385 62.4724 92.0072C61.7306 91.2759 61.3137 90.284 61.3135 89.2497C61.3132 88.2154 61.7296 87.2234 62.471 86.4917C63.2125 85.7601 64.2183 85.3488 65.2672 85.3483C66.3161 85.3477 67.3223 85.7581 68.0645 86.489C68.8067 87.2199 69.2241 88.2115 69.2249 89.2458C69.2257 90.2801 68.8098 91.2724 68.0687 92.0044C67.3277 92.7364 66.3221 93.1482 65.2731 93.1493H65.2692Z" fill="#B8B7BB"/>
<path d="M127.571 114.602C126.522 114.602 125.516 114.191 124.774 113.46C124.032 112.729 123.615 111.737 123.615 110.702C123.615 109.668 124.031 108.676 124.773 107.944C125.514 107.213 126.52 106.802 127.569 106.801C128.618 106.801 129.624 107.211 130.366 107.942C131.108 108.673 131.526 109.664 131.527 110.699C131.527 111.733 131.112 112.725 130.37 113.457C129.629 114.189 128.624 114.601 127.575 114.602H127.571Z" fill="#B8B7BB"/>
<path d="M189.874 134.105C188.825 134.105 187.819 133.694 187.077 132.962C186.335 132.231 185.918 131.239 185.918 130.205C185.918 129.171 186.334 128.179 187.076 127.447C187.817 126.715 188.823 126.304 189.872 126.304C190.921 126.303 191.927 126.713 192.669 127.444C193.411 128.175 193.829 129.167 193.829 130.201C193.83 131.235 193.414 132.228 192.673 132.96C191.932 133.692 190.927 134.103 189.878 134.105H189.874Z" fill="#B8B7BB"/>
<path d="M252.175 108.751C251.126 108.751 250.12 108.34 249.379 107.609C248.637 106.878 248.22 105.886 248.22 104.852C248.219 103.817 248.636 102.825 249.377 102.094C250.119 101.362 251.125 100.951 252.173 100.95C253.222 100.95 254.229 101.36 254.971 102.091C255.713 102.822 256.13 103.814 256.131 104.848C256.132 105.882 255.716 106.874 254.975 107.606C254.234 108.338 253.228 108.75 252.179 108.751H252.175Z" fill="#B8B7BB"/>
<path d="M314.478 120.453C313.429 120.453 312.423 120.042 311.681 119.311C310.94 118.579 310.523 117.588 310.522 116.553C310.522 115.519 310.939 114.527 311.68 113.795C312.421 113.064 313.427 112.652 314.476 112.652C315.525 112.651 316.531 113.062 317.274 113.792C318.016 114.523 318.433 115.515 318.434 116.549C318.435 117.584 318.019 118.576 317.278 119.308C316.537 120.04 315.531 120.452 314.482 120.453H314.478Z" fill="#B8B7BB"/>
<path d="M375.791 49.2686C374.742 49.2686 373.736 48.8578 372.994 48.1266C372.253 47.3953 371.836 46.4034 371.835 45.3691C371.835 44.3348 372.252 43.3428 372.993 42.6111C373.734 41.8795 374.74 41.4682 375.789 41.4677C376.838 41.4671 377.844 41.8775 378.586 42.6084C379.329 43.3393 379.746 44.3309 379.747 45.3652C379.748 46.3995 379.332 47.3918 378.591 48.1238C377.85 48.8558 376.844 49.2676 375.795 49.2686L375.791 49.2686Z" fill="#B8B7BB"/>
<path d="M438.093 74.6219C437.044 74.6219 436.038 74.2111 435.297 73.4798C434.555 72.7486 434.138 71.7567 434.138 70.7224C434.137 69.6881 434.554 68.696 435.295 67.9644C436.037 67.2327 437.042 66.8214 438.091 66.8209C439.14 66.8204 440.147 67.2307 440.889 67.9616C441.631 68.6925 442.048 69.6842 442.049 70.7185C442.05 71.7528 441.634 72.7451 440.893 73.4771C440.152 74.2091 439.146 74.6209 438.097 74.6219H438.093Z" fill="#B8B7BB"/>
<path d="M500.396 89.2487C499.347 89.2487 498.341 88.8379 497.599 88.1067C496.857 87.3754 496.44 86.3835 496.44 85.3492C496.44 84.3149 496.856 83.3229 497.597 82.5912C498.339 81.8596 499.345 81.4483 500.394 81.4478C501.443 81.4472 502.449 81.8576 503.191 82.5885C503.933 83.3194 504.351 84.311 504.351 85.3453C504.352 86.3796 503.936 87.3719 503.195 88.1039C502.454 88.8359 501.449 89.2477 500.4 89.2487H500.396Z" fill="#B8B7BB"/>
<path d="M562.698 78.5224C561.649 78.5224 560.643 78.1116 559.901 77.3803C559.159 76.6491 558.742 75.6572 558.742 74.6229C558.742 73.5886 559.158 72.5965 559.9 71.8649C560.641 71.1333 561.647 70.722 562.696 70.7214C563.745 70.7209 564.751 71.1312 565.493 71.8621C566.235 72.5931 566.653 73.5847 566.654 74.619C566.654 75.6533 566.238 76.6456 565.497 77.3776C564.756 78.1096 563.751 78.5214 562.702 78.5224H562.698Z" fill="#B8B7BB"/>
<path d="M625 83.398C623.951 83.398 622.945 82.9872 622.203 82.2559C621.462 81.5246 621.045 80.5328 621.044 79.4985C621.044 78.4642 621.461 77.4721 622.202 76.7404C622.943 76.0088 623.949 75.5975 624.998 75.597C626.047 75.5965 627.053 76.0068 627.795 76.7377C628.538 77.4686 628.955 78.4603 628.956 79.4946C628.957 80.5289 628.541 81.5211 627.8 82.2531C627.059 82.9851 626.053 83.3969 625.004 83.398H625Z" fill="#B8B7BB"/>
<path d="M686.313 50.2437C685.264 50.2437 684.258 49.8329 683.516 49.1017C682.775 48.3704 682.358 47.3785 682.357 46.3442C682.357 45.3099 682.774 44.3179 683.515 43.5862C684.256 42.8546 685.262 42.4433 686.311 42.4427C687.36 42.4422 688.366 42.8525 689.108 43.5835C689.851 44.3144 690.268 45.306 690.269 46.3403C690.27 47.3746 689.854 48.3669 689.113 49.0989C688.372 49.8309 687.366 50.2427 686.317 50.2437L686.313 50.2437Z" fill="#B8B7BB"/>
<path d="M748.615 63.8955C747.566 63.8955 746.56 63.4847 745.819 62.7535C745.077 62.0222 744.66 61.0303 744.66 59.996C744.659 58.9617 745.076 57.9696 745.817 57.238C746.559 56.5064 747.564 56.0951 748.613 56.0945C749.662 56.094 750.669 56.5043 751.411 57.2353C752.153 57.9662 752.57 58.9578 752.571 59.9921C752.572 61.0264 752.156 62.0187 751.415 62.7507C750.674 63.4827 749.668 63.8945 748.619 63.8955L748.615 63.8955Z" fill="#B8B7BB"/>
<path d="M810.918 139.955C809.869 139.955 808.863 139.544 808.121 138.813C807.379 138.082 806.962 137.09 806.962 136.056C806.962 135.021 807.378 134.029 808.119 133.298C808.861 132.566 809.867 132.155 810.916 132.154C811.965 132.154 812.971 132.564 813.713 133.295C814.455 134.026 814.873 135.017 814.873 136.052C814.874 137.086 814.458 138.078 813.717 138.81C812.976 139.542 811.971 139.954 810.922 139.955H810.918Z" fill="#B8B7BB"/>
<path d="M873.22 126.303C872.171 126.303 871.165 125.893 870.423 125.161C869.681 124.43 869.264 123.438 869.264 122.404C869.264 121.37 869.68 120.378 870.422 119.646C871.163 118.914 872.169 118.503 873.218 118.503C874.267 118.502 875.273 118.912 876.015 119.643C876.757 120.374 877.175 121.366 877.176 122.4C877.176 123.434 876.76 124.427 876.019 125.159C875.278 125.891 874.273 126.302 873.224 126.303H873.22Z" fill="#B8B7BB"/>
<path d="M935.522 102.9C934.473 102.9 933.467 102.49 932.725 101.758C931.984 101.027 931.567 100.035 931.566 99.001C931.566 97.9667 931.983 96.9746 932.724 96.2429C933.465 95.5113 934.471 95.1 935.52 95.0995C936.569 95.099 937.575 95.5093 938.317 96.2402C939.06 96.9711 939.477 97.9628 939.478 98.9971C939.479 100.031 939.063 101.024 938.322 101.756C937.581 102.488 936.575 102.899 935.526 102.9H935.522Z" fill="#B8B7BB"/>
<path d="M996.836 75.597C995.787 75.597 994.781 75.1862 994.039 74.4549C993.297 73.7237 992.88 72.7318 992.88 71.6975C992.88 70.6632 993.296 69.6711 994.037 68.9395C994.779 68.2078 995.785 67.7965 996.834 67.796C997.883 67.7955 998.889 68.2058 999.631 68.9367C1000.37 69.6676 1000.79 70.6593 1000.79 71.6936C1000.79 72.7279 1000.38 73.7202 999.635 74.4522C998.894 75.1842 997.889 75.596 996.84 75.597H996.836Z" fill="#B8B7BB"/>
<path d="M1059.14 108.751C1058.09 108.751 1057.08 108.34 1056.34 107.609C1055.6 106.878 1055.18 105.886 1055.18 104.852C1055.18 103.817 1055.6 102.825 1056.34 102.094C1057.08 101.362 1058.09 100.951 1059.14 100.95C1060.18 100.95 1061.19 101.36 1061.93 102.091C1062.68 102.822 1063.09 103.814 1063.09 104.848C1063.09 105.882 1062.68 106.874 1061.94 107.606C1061.2 108.338 1060.19 108.75 1059.14 108.751H1059.14Z" fill="#B8B7BB"/>
<path d="M1121.44 146.781C1120.39 146.781 1119.39 146.37 1118.64 145.639C1117.9 144.908 1117.48 143.916 1117.48 142.882C1117.48 141.847 1117.9 140.855 1118.64 140.124C1119.38 139.392 1120.39 138.981 1121.44 138.98C1122.49 138.98 1123.49 139.39 1124.24 140.121C1124.98 140.852 1125.39 141.843 1125.4 142.878C1125.4 143.912 1124.98 144.904 1124.24 145.636C1123.5 146.368 1122.49 146.78 1121.44 146.781H1121.44Z" fill="#B8B7BB"/>
<path d="M1183.74 96.0747C1182.69 96.0747 1181.69 95.6639 1180.95 94.9326C1180.2 94.2013 1179.79 93.2095 1179.79 92.1752C1179.79 91.1408 1180.2 90.1488 1180.94 89.4171C1181.69 88.6855 1182.69 88.2742 1183.74 88.2737C1184.79 88.2732 1185.8 88.6835 1186.54 89.4144C1187.28 90.1453 1187.7 91.1369 1187.7 92.1713C1187.7 93.2056 1187.28 94.1978 1186.54 94.9298C1185.8 95.6618 1184.79 96.0736 1183.75 96.0747H1183.74Z" fill="#B8B7BB"/>
<path d="M1246.04 46.3433C1245 46.3433 1243.99 45.9325 1243.25 45.2012C1242.51 44.4699 1242.09 43.4781 1242.09 42.4438C1242.09 41.4095 1242.5 40.4174 1243.25 39.6858C1243.99 38.9541 1244.99 38.5428 1246.04 38.5423C1247.09 38.5418 1248.1 38.9521 1248.84 39.683C1249.58 40.4139 1250 41.4056 1250 42.4399C1250 43.4742 1249.59 44.4664 1248.84 45.1984C1248.1 45.9305 1247.1 46.3423 1246.05 46.3433L1246.04 46.3433Z" fill="#B8B7BB"/>
</g>
</svg>
