<svg viewBox="0 0 64 64" fill="#4F4F4F" xmlns="http://www.w3.org/2000/svg">
<path class="st0" d="M58.4,38l-4.7-2.7c0.2-1.1,0.2-2.2,0.2-3.3s-0.1-2.2-0.2-3.3l4.7-2.7c1-0.6,1.3-1.8,0.8-2.8l-5.9-10.2
	c-0.6-1-1.8-1.3-2.8-0.8l-4.7,2.7c-1.7-1.4-3.7-2.5-5.7-3.3V6.1c0-1.1-0.9-2-2-2.1v0h-0.1H26.1H26v0c-1.1,0-2,1-2,2.1v5.4
	c-2.1,0.8-4,1.9-5.7,3.3l-4.7-2.7c-1-0.6-2.3-0.2-2.8,0.8L4.8,23.1c-0.6,1-0.2,2.3,0.8,2.8l4.7,2.7C10.1,29.8,10,30.9,10,32
	s0.1,2.2,0.2,3.3L5.6,38c-1,0.6-1.3,1.8-0.8,2.8l5.9,10.2c0.6,1,1.8,1.3,2.8,0.8l4.7-2.7c1.7,1.4,3.7,2.5,5.7,3.3v5.4
	c0,1.1,0.9,2,2,2.1v0h0.1h11.8H38v0c1.1,0,2-1,2-2.1v-5.4c2.1-0.8,4-1.9,5.7-3.3l4.7,2.7c1,0.6,2.3,0.2,2.8-0.8l5.9-10.2
	C59.8,39.9,59.4,38.6,58.4,38z M32,41c-5,0-9-4-9-9c0-5,4-9,9-9s9,4,9,9C41,37,37,41,32,41z"/>
</svg>
