<svg width="150" height="191" viewBox="0 0 150 191" fill="none" xmlns="http://www.w3.org/2000/svg">
<path d="M130.129 97.3H130.134L119.947 103.182L119.981 102.627C119.013 103.401 117.885 103.926 116.63 104.184L120.01 102.223L120.336 97.0373C119.796 96.7892 119.242 96.507 118.682 96.1811L57.5666 60.8807V60.8612L47.9285 55.2957C42.808 52.3378 38.1689 47.2587 34.8135 41.4402C31.4582 35.6217 29.3818 29.0685 29.3818 23.1527C29.3818 20.9926 29.659 19.0661 30.1744 17.4022L24.3828 17.1687L34.5072 11.3259L34.5899 11.2724L35.0372 11.0145C38.3731 9.2096 42.9247 9.54528 47.9334 12.4351C51.848 14.6924 55.4756 18.1855 58.4662 22.3062C58.7969 21.0461 59.22 19.8737 59.7257 18.8034L56.4141 17.626L65.4589 12.3281C70.3363 9.51609 77.0664 9.91989 84.5017 14.2157C98.1662 22.1067 109.448 40.3845 111.198 56.6287C113.44 56.5654 115.983 57.2709 118.687 58.8325C123.151 61.411 127.192 65.8333 130.115 70.9026C133.037 75.967 134.851 81.6834 134.851 86.8403C134.851 91.9972 133.047 95.607 130.129 97.3Z" fill="#3493C2"/>
<path d="M19.1846 29.0335C19.1846 34.9494 21.261 41.5025 24.6163 47.321C27.9765 53.1396 32.6108 58.2138 37.7313 61.1717L47.3694 66.7372V66.7567L108.485 102.057C117.408 107.214 124.649 103.035 124.649 92.7212C124.649 87.5643 122.84 81.8479 119.913 76.7834C116.985 71.7141 112.944 67.2918 108.48 64.7134C105.781 63.1517 103.233 62.4463 100.992 62.5096C99.2458 46.2653 87.9592 27.9876 74.2947 20.0965C66.8595 15.8007 60.1294 15.397 55.252 18.2089C51.9453 20.1209 49.4896 23.5166 48.2593 28.1919C45.2686 24.0712 41.6361 20.5782 37.7264 18.316C32.6059 15.358 27.9716 15.0759 24.6114 17.017C21.2561 18.9533 19.1797 23.1128 19.1797 29.0287L19.1846 29.0335Z" fill="#CDE6F5"/>
<g clip-path="url(#clip0_1131_121526)">
<g clip-path="url(#clip1_1131_121526)">
<path d="M48.5683 44.0724C48.5684 45.7592 47.3059 45.8422 45.8686 45.012C44.5255 44.2362 43.5306 43.0054 43.0478 41.5241L44.5522 41.409C44.7403 42.1591 45.197 42.7971 45.8684 43.1849C46.4201 43.5035 46.7952 43.5016 46.7952 43.0485C46.7944 41.9074 43.3298 40.5313 43.3296 37.7824C43.3295 36.1894 44.498 35.9741 45.8808 36.7729C46.9687 37.4013 47.9089 38.5221 48.4324 39.9021L46.9549 39.9857C46.7533 39.3695 46.3772 38.8556 45.8803 38.5686C45.4504 38.3203 45.1013 38.3372 45.1013 38.7601C45.1028 39.9147 48.5681 41.1987 48.5683 44.0724Z" fill="#0B263E"/>
<path d="M60.834 45.6291L60.8346 53.4387L59.1019 52.4379L59.1019 51.516C58.6192 51.9399 57.8931 51.958 56.9126 51.3916C55.1261 50.3598 53.6484 47.71 53.6483 45.383C53.6481 43.0561 55.1255 42.1132 56.9119 43.1451C57.8925 43.7115 58.6177 44.5676 59.1014 45.5499L59.1013 44.6283L60.834 45.6291ZM59.1016 48.533C59.1015 47.2209 58.3089 45.8728 57.2343 45.2521C56.1733 44.6393 55.3808 45.0718 55.3809 46.3838C55.381 47.6959 56.1727 49.0432 57.2347 49.6566C58.3104 50.2779 59.1017 49.8453 59.1016 48.533Z" fill="#0B263E"/>
<path d="M65.5735 48.2109L65.5737 50.4597C64.6738 49.8151 63.5321 49.6242 63.5322 51.2642L63.5325 54.9965L61.7989 53.9951L61.7984 46.1856L63.531 47.1864L63.5311 48.5294C63.8802 47.6692 64.7265 47.7216 65.5735 48.2109Z" fill="#0B263E"/>
<path d="M74.1933 55.2819L74.1935 58.5304C74.1936 59.3739 74.7174 59.692 75.7107 60.2034L75.7108 62.031C73.2796 60.9392 72.4603 59.6383 72.4602 57.5297L72.4599 54.2807L71.2913 53.6057L71.2912 51.669L72.4598 52.344L72.4596 50.1574L74.193 51.1586L74.1931 53.3452L75.7102 54.2215L75.7103 56.1582L74.1933 55.2819Z" fill="#0B263E"/>
<path d="M80.2074 56.6635L80.2075 58.9123C79.3076 58.2677 78.166 58.0768 78.1661 59.7168L78.1664 63.449L76.4337 62.4482L76.4331 54.6387L78.1658 55.6395L78.1659 56.9826C78.5147 56.1222 79.361 56.1746 80.2074 56.6635Z" fill="#0B263E"/>
<path d="M84.1446 65.2934C84.8163 65.6813 85.3534 65.6637 85.649 65.3814L87.0459 67.1253C86.4148 67.8228 85.4074 67.85 84.1179 67.1052C81.8614 65.8018 80.4375 63.1831 80.4373 60.8562C80.4371 58.5293 81.8743 57.5631 83.983 58.7811C85.9708 59.9293 87.3814 62.5713 87.3816 64.8673C87.3805 65.1446 87.3581 65.4089 87.3145 65.657L82.2507 62.7322C82.4917 63.9014 83.2314 64.7659 84.1446 65.2934ZM85.6488 63.1322C85.4338 61.8837 84.7084 61.0121 83.9832 60.5933C83.0564 60.0579 82.425 60.2711 82.2237 61.1539L85.6488 63.1322Z" fill="#0B263E"/>
<path d="M91.5587 69.5756C92.2304 69.9636 92.7675 69.9459 93.0631 69.6636L94.46 71.4075C93.8289 72.1051 92.8215 72.1323 91.5322 71.3876C89.2754 70.0841 87.8516 67.4653 87.8514 65.1384C87.8512 62.8115 89.2884 61.8453 91.3971 63.0634C93.3851 64.2117 94.7955 66.8536 94.7956 69.1495C94.7946 69.4268 94.7721 69.6911 94.7286 69.9393L89.6648 67.0144C89.9067 68.1841 90.6455 69.0481 91.5587 69.5756ZM93.0629 67.4145C92.8479 66.1659 92.1227 65.2945 91.3972 64.8755C90.4704 64.3402 89.8393 64.5534 89.6378 65.4361L93.0629 67.4145Z" fill="#0B263E"/>
<path d="M51.7946 42.344L51.7949 45.5925C51.795 46.436 52.3188 46.7541 53.312 47.2655L53.3122 49.0931C50.881 48.0013 50.0615 46.7002 50.0613 44.5917L50.0611 41.3427L48.8934 40.6682L48.8932 38.7315L50.0616 39.4064L50.0614 37.2198L51.7943 38.2207L51.7945 40.4073L53.3116 41.2836L53.3117 43.2203L51.7946 42.344Z" fill="#0B263E"/>
<path d="M70.5921 54.3689L68.5859 53.2101L68.5846 50.0344C68.5846 50.0024 68.5756 49.966 68.559 49.9308C68.5423 49.8956 68.5189 49.8635 68.4923 49.8395C68.4658 49.8155 68.4375 49.8009 68.4118 49.7979C68.3862 49.795 68.3646 49.8038 68.3503 49.823L65.9875 53.0322C65.9759 53.0477 65.9695 53.0696 65.9691 53.0954C65.9687 53.1213 65.9743 53.1502 65.9853 53.1793C65.9962 53.2084 66.0122 53.2366 66.0315 53.261C66.0509 53.2854 66.0729 53.3051 66.0953 53.3181L68.1022 54.4773L68.1041 57.6533C68.1039 57.6853 68.1128 57.7217 68.1294 57.7569C68.1461 57.7922 68.1695 57.8243 68.1961 57.8483C68.2227 57.8723 68.251 57.8869 68.2766 57.8899C68.3023 57.8928 68.3239 57.8839 68.3381 57.8646L70.6995 54.6546C70.7111 54.639 70.7173 54.6172 70.7177 54.5914C70.7181 54.5656 70.7125 54.5368 70.7016 54.5078C70.6907 54.4788 70.6749 54.4507 70.6556 54.4263C70.6364 54.4019 70.6145 54.3821 70.5921 54.3689Z" fill="#0B263E"/>
</g>
<path d="M44.7858 54.925L44.7855 50.2698L43.2345 49.374L43.2344 48.1265L47.6771 50.6927L47.6772 51.9402L46.1263 51.0443L46.1266 55.6994L44.7858 54.925Z" fill="#0B263E"/>
<path d="M49.7627 57.7997L49.7622 51.897L51.103 52.6715L51.1032 54.9488L53.1615 56.1377L53.1614 53.8604L54.5022 54.6348L54.5026 60.5375L53.1618 59.763L53.1616 57.402L51.1033 56.2131L51.1035 58.5741L49.7627 57.7997Z" fill="#0B263E"/>
<path d="M56.9681 61.9616L56.9676 56.0589L58.3084 56.8334L58.3089 62.736L56.9681 61.9616Z" fill="#0B263E"/>
<path d="M60.7762 64.1612L60.7757 58.2585L63.1892 59.6526C63.7786 59.993 64.2328 60.4173 64.5518 60.9252C64.8755 61.4359 65.0374 61.9787 65.0374 62.5536C65.0375 62.9388 64.965 63.2262 64.8201 63.416C64.6752 63.6002 64.465 63.6881 64.1896 63.6798C63.9142 63.6658 63.5856 63.5486 63.2039 63.3281L63.2692 63.1565L63.6315 63.3658C63.8441 63.4886 64.0326 63.6644 64.1969 63.8933C64.3611 64.1221 64.4965 64.3872 64.6028 64.6886L65.3784 66.8195L63.9144 65.9738L63.0808 63.6086C63.0276 63.4551 62.9479 63.3253 62.8416 63.2193C62.7401 63.116 62.6241 63.0267 62.4937 62.9513L62.1168 62.7337L62.117 64.9356L60.7762 64.1612ZM62.1167 61.6369L62.9574 62.1225C63.2184 62.2732 63.4165 62.329 63.5517 62.2899C63.687 62.2453 63.7546 62.1029 63.7546 61.8629C63.7546 61.6285 63.6869 61.4136 63.5517 61.2182C63.4164 61.0229 63.2182 60.8498 62.9573 60.6991L62.1166 60.2135L62.1167 61.6369Z" fill="#0B263E"/>
<path d="M67.4649 68.0247L67.4645 62.122L69.5228 63.3109C70.1267 63.6598 70.6365 64.0742 71.052 64.5542C71.4676 65.0287 71.7817 65.5478 71.9943 66.1115C72.2118 66.6725 72.3205 67.26 72.3206 67.8739C72.3206 68.4824 72.2119 68.9442 71.9945 69.2596C71.782 69.5778 71.4679 69.7368 71.0524 69.7368C70.6369 69.7368 70.1272 69.5624 69.5232 69.2136L67.4649 68.0247ZM68.8056 67.5432L69.4361 67.9074C69.9628 68.2116 70.3517 68.2968 70.603 68.1628C70.859 68.0316 70.987 67.6786 70.987 67.1037C70.987 66.5232 70.8589 66.0222 70.6028 65.6008C70.3515 65.1766 69.9625 64.8124 69.4359 64.5082L68.8053 64.144L68.8056 67.5432Z" fill="#0B263E"/>
<path d="M78.2661 74.2635L78.2656 68.3609L81.9329 70.4791L81.933 71.6596L79.5485 70.2824L79.5486 71.4127L81.7591 72.6895L81.7592 73.8784L79.5487 72.6016L79.5488 73.8156L81.9332 75.1929L81.9333 76.3818L78.2661 74.2635Z" fill="#0B263E"/>
<path d="M85.4085 78.3891L85.4083 75.5675L85.6765 76.5764L83.386 71.3184L84.9297 72.2101L86.2272 75.3289L85.9663 75.1782L87.2634 73.5581L88.7564 74.4205L86.481 77.0411L86.7491 76.342L86.7493 79.1635L85.4085 78.3891Z" fill="#0B263E"/>
<path d="M90.8013 81.504L90.8008 75.6013L94.4681 77.7196L94.4682 78.9001L92.0837 77.5228L92.0838 78.6531L94.2943 79.9299L94.2944 81.1188L92.0839 79.842L92.084 81.056L94.4684 82.4333L94.4685 83.6222L90.8013 81.504Z" fill="#0B263E"/>
</g>
<path opacity="0.5" d="M134.788 148.339H15.4599L0 5.87891H150L134.788 148.339Z" fill="url(#paint0_linear_1131_121526)"/>
<path d="M134.793 147.65L134.688 155.855C134.664 164.628 128.867 173.387 117.297 180.084C94.0124 193.549 56.1595 193.549 32.694 180.069C20.9004 173.29 15.0109 164.4 15.0352 155.52L15.3131 147.305C15.2887 156.185 21.1783 165.08 32.9719 171.854C56.4374 185.339 94.2903 185.339 117.575 171.868C129.145 165.177 134.769 156.429 134.793 147.65Z" fill="#88BEDF"/>
<path d="M117.141 123.533C140.593 137.053 140.686 158.945 117.419 172.45C94.1469 185.95 56.3152 185.95 32.8629 172.436C9.4398 158.935 9.31797 137.053 32.5851 123.552C55.8572 110.052 93.7181 110.033 117.141 123.538V123.533Z" fill="#E6F2FA"/>
<path d="M114.232 125.3C136.26 137.936 136.35 158.404 114.49 171.03C92.6311 183.655 57.0963 183.655 35.0686 171.013C13.069 158.388 12.9512 137.936 34.8106 125.311C56.67 112.686 92.2329 112.675 114.232 125.294V125.3Z" fill="#CDE6F5"/>
<path d="M105.319 131.031C122.199 140.696 122.264 156.352 105.521 166.003C88.7714 175.654 61.5423 175.654 44.67 165.989C27.8122 156.338 27.7257 140.689 44.4682 131.038C61.218 121.387 88.4615 121.373 105.319 131.024V131.031Z" fill="#88BEDF"/>
<path d="M89.5723 151.714L79.5433 145.924L93.2122 138.024C93.8549 137.652 93.2501 137.031 92.3686 137.161L60.8546 141.714C60.7005 141.736 60.5591 141.781 60.445 141.845C60.3309 141.909 60.248 141.989 60.2049 142.077C60.1618 142.165 60.16 142.259 60.1997 142.347C60.2394 142.436 60.3191 142.517 60.4307 142.582L70.463 148.374L56.7954 156.273C56.1526 156.644 56.7581 157.265 57.639 157.135L89.1517 152.581C89.3052 152.558 89.4458 152.513 89.5592 152.449C89.6726 152.385 89.7549 152.305 89.7976 152.217C89.8403 152.129 89.8419 152.037 89.8024 151.948C89.7628 151.86 89.6835 151.779 89.5723 151.714Z" fill="#FAD32D"/>
<defs>
<linearGradient id="paint0_linear_1131_121526" x1="75" y1="5.3331" x2="75" y2="203.076" gradientUnits="userSpaceOnUse">
<stop stop-color="#CDE6F5" stop-opacity="0"/>
<stop offset="0.625" stop-color="#CDE6F5"/>
</linearGradient>
<clipPath id="clip0_1131_121526">
<rect width="78.0723" height="78.0987" fill="white" transform="matrix(0.865928 0.500169 7.53602e-05 1 35.1445 0)"/>
</clipPath>
<clipPath id="clip1_1131_121526">
<rect width="59.7599" height="10.2145" fill="white" transform="matrix(0.865928 0.500169 7.53602e-05 1 43.0474 33.1685)"/>
</clipPath>
</defs>
</svg>
