<svg viewBox="0 0 64 64" fill="none" xmlns="http://www.w3.org/2000/svg">
<path d="M19.7813 27.1621C19.7813 27.8513 19.8558 28.41 19.9862 28.8198C20.1352 29.2295 20.3214 29.6765 20.5822 30.1608C20.6753 30.3098 20.7126 30.4588 20.7126 30.5891C20.7126 30.7754 20.6008 30.9616 20.3587 31.1479L19.1853 31.9301C19.0177 32.0419 18.8501 32.0978 18.7011 32.0978C18.5148 32.0978 18.3286 32.0046 18.1423 31.837C17.8816 31.5576 17.6581 31.2596 17.4718 30.9616C17.2856 30.645 17.0993 30.2911 16.8944 29.8628C15.4417 31.5763 13.6164 32.433 11.4187 32.433C9.85418 32.433 8.60631 31.986 7.69368 31.092C6.78105 30.198 6.31543 29.006 6.31543 27.516C6.31543 25.9329 6.87418 24.6478 8.01031 23.6793C9.14643 22.7108 10.6551 22.2265 12.5734 22.2265C13.2067 22.2265 13.8586 22.2824 14.5477 22.3755C15.2368 22.4686 15.9446 22.6176 16.6896 22.7853V21.4256C16.6896 20.0101 16.3916 19.023 15.8142 18.4456C15.2182 17.8683 14.2124 17.5889 12.7783 17.5889C12.1264 17.5889 11.4559 17.6634 10.7668 17.831C10.0777 17.9986 9.40718 18.2035 8.75531 18.4643C8.45731 18.5946 8.23381 18.6691 8.10343 18.7064C7.97306 18.7436 7.87993 18.7623 7.80543 18.7623C7.54468 18.7623 7.41431 18.576 7.41431 18.1849V17.2723C7.41431 16.9743 7.45156 16.7508 7.54468 16.6204C7.63781 16.49 7.80543 16.3596 8.06618 16.2293C8.71806 15.894 9.50031 15.6146 10.4129 15.3911C11.3256 15.149 12.2941 15.0373 13.3184 15.0373C15.5348 15.0373 17.1552 15.5401 18.1982 16.5459C19.2226 17.5516 19.7441 19.0789 19.7441 21.1276V27.1621H19.7813ZM12.2196 29.9931C12.8342 29.9931 13.4674 29.8814 14.1379 29.6579C14.8084 29.4344 15.4044 29.0246 15.9073 28.4659C16.2053 28.112 16.4288 27.7209 16.5406 27.2739C16.6523 26.8269 16.7268 26.2868 16.7268 25.6535V24.8713C16.1867 24.7409 15.6093 24.6291 15.0133 24.5546C14.4173 24.4801 13.8399 24.4429 13.2626 24.4429C12.0147 24.4429 11.1021 24.685 10.4874 25.1879C9.87281 25.6908 9.57481 26.3985 9.57481 27.3298C9.57481 28.2051 9.79831 28.857 10.2639 29.304C10.7109 29.7696 11.3628 29.9931 12.2196 29.9931V29.9931ZM27.1754 32.0046C26.8402 32.0046 26.6167 31.9488 26.4677 31.8184C26.3187 31.7066 26.1883 31.4459 26.0766 31.092L21.6997 16.6949C21.5879 16.3224 21.5321 16.0803 21.5321 15.9499C21.5321 15.6519 21.6811 15.4843 21.9791 15.4843H23.8043C24.1582 15.4843 24.4003 15.5401 24.5307 15.6705C24.6797 15.7823 24.7914 16.043 24.9032 16.3969L28.0322 28.7266L30.9377 16.3969C31.0308 16.0244 31.1426 15.7823 31.2916 15.6705C31.4406 15.5588 31.7013 15.4843 32.0366 15.4843H33.5266C33.8804 15.4843 34.1226 15.5401 34.2716 15.6705C34.4206 15.7823 34.5509 16.043 34.6254 16.3969L37.5682 28.8756L40.7903 16.3969C40.9021 16.0244 41.0324 15.7823 41.1628 15.6705C41.3118 15.5588 41.5539 15.4843 41.8892 15.4843H43.6213C43.9193 15.4843 44.0869 15.6333 44.0869 15.9499C44.0869 16.043 44.0683 16.1361 44.0497 16.2479C44.0311 16.3596 43.9938 16.5086 43.9193 16.7135L39.4307 31.1106C39.3189 31.4831 39.1886 31.7253 39.0396 31.837C38.8906 31.9488 38.6484 32.0233 38.3318 32.0233H36.7301C36.3762 32.0233 36.1341 31.9674 35.9851 31.837C35.8361 31.7066 35.7057 31.4645 35.6312 31.092L32.7443 19.0789L29.8761 31.0734C29.7829 31.4459 29.6712 31.688 29.5222 31.8184C29.3732 31.9488 29.1124 32.0046 28.7772 32.0046H27.1754ZM51.1086 32.5075C50.1401 32.5075 49.1716 32.3958 48.2403 32.1723C47.3091 31.9488 46.5827 31.7066 46.0985 31.4273C45.8005 31.2596 45.5956 31.0734 45.5211 30.9058C45.4466 30.7381 45.4093 30.5519 45.4093 30.3843V29.4344C45.4093 29.0433 45.5583 28.857 45.8377 28.857C45.9495 28.857 46.0612 28.8756 46.173 28.9129C46.2847 28.9501 46.4523 29.0246 46.6386 29.0991C47.2718 29.3785 47.961 29.602 48.6873 29.751C49.4323 29.9 50.1587 29.9745 50.9037 29.9745C52.0771 29.9745 52.9897 29.7696 53.623 29.3599C54.2562 28.9501 54.5915 28.3541 54.5915 27.5905C54.5915 27.069 54.4238 26.6406 54.0886 26.2868C53.7533 25.9329 53.1201 25.6163 52.2075 25.3183L49.5068 24.4801C48.1472 24.0518 47.1415 23.4185 46.5268 22.5804C45.9122 21.7609 45.5956 20.8483 45.5956 19.8798C45.5956 19.0975 45.7632 18.4084 46.0985 17.8124C46.4337 17.2164 46.8807 16.6949 47.4395 16.2851C47.9982 15.8568 48.6315 15.5401 49.3765 15.3166C50.1215 15.0931 50.9037 15 51.7232 15C52.133 15 52.5613 15.0186 52.9711 15.0745C53.3995 15.1304 53.7906 15.2049 54.1817 15.2794C54.5542 15.3725 54.9081 15.4656 55.2433 15.5774C55.5786 15.6891 55.8393 15.8009 56.0256 15.9126C56.2863 16.0616 56.4726 16.2106 56.5843 16.3783C56.6961 16.5273 56.752 16.7321 56.752 16.9929V17.8683C56.752 18.2594 56.603 18.4643 56.3236 18.4643C56.1746 18.4643 55.9325 18.3898 55.6158 18.2408C54.5542 17.7565 53.3622 17.5144 52.0398 17.5144C50.9782 17.5144 50.1401 17.682 49.5627 18.0359C48.9853 18.3898 48.6873 18.9299 48.6873 19.6935C48.6873 20.215 48.8736 20.662 49.2461 21.0159C49.6186 21.3698 50.3077 21.7236 51.2948 22.0403L53.9396 22.8784C55.2806 23.3068 56.2491 23.9028 56.8265 24.6664C57.4038 25.43 57.6832 26.3054 57.6832 27.2739C57.6832 28.0748 57.5156 28.8011 57.199 29.4344C56.8637 30.0676 56.4167 30.6264 55.8393 31.0734C55.262 31.539 54.5728 31.8743 53.772 32.1164C52.9338 32.3771 52.0585 32.5075 51.1086 32.5075V32.5075Z" fill="#252F3E"/>
<path fill-rule="evenodd" clip-rule="evenodd" d="M54.6287 41.5592C48.5011 46.0851 39.5984 48.4877 31.9435 48.4877C21.2155 48.4877 11.5491 44.5206 4.24809 37.9273C3.67071 37.4058 4.19221 36.6981 4.88134 37.1078C12.7783 41.6896 22.5192 44.4647 32.5954 44.4647C39.3935 44.4647 46.8621 43.0492 53.7347 40.1437C54.7591 39.6781 55.6345 40.8142 54.6287 41.5592V41.5592Z" fill="#FF9900"/>
<path fill-rule="evenodd" clip-rule="evenodd" d="M57.1804 38.6537C56.3981 37.648 52.0026 38.1695 50.0098 38.4116C49.4138 38.4861 49.3206 37.9646 49.8608 37.5735C53.3623 35.115 59.1174 35.8227 59.7879 36.6422C60.4584 37.4804 59.6016 43.2355 56.3236 45.992C55.8208 46.4204 55.3365 46.1969 55.56 45.6381C56.305 43.7942 57.9626 39.6409 57.1804 38.6537V38.6537Z" fill="#FF9900"/>
</svg>
