<svg viewBox="0 0 64 64" fill="none" xmlns="http://www.w3.org/2000/svg">
<g clip-path="url(#clip0_2_10)">
<path d="M31.8917 5C16.4895 5 4 17.4965 4 32.9121C4 45.2446 11.9918 55.7071 23.0741 59.3979C24.468 59.6563 24.9799 58.7924 24.9799 58.0552C24.9799 57.3897 24.9538 55.1907 24.942 52.8585C17.1823 54.5469 15.545 49.5652 15.545 49.5652C14.2762 46.3389 12.4481 45.4812 12.4481 45.4812C9.91762 43.7488 12.6389 43.7842 12.6389 43.7842C15.4398 43.9812 16.9146 46.6607 16.9146 46.6607C19.4022 50.9279 23.4394 49.6941 25.0311 48.9811C25.2813 47.1769 26.0043 45.9457 26.8018 45.2487C20.6068 44.5427 14.0942 42.1494 14.0942 31.4544C14.0942 28.4071 15.1838 25.917 16.9682 23.9624C16.6785 23.2593 15.7239 20.4204 17.2383 16.5757C17.2383 16.5757 19.5805 15.8255 24.9105 19.4369C27.1352 18.8182 29.5213 18.5083 31.8917 18.4977C34.2621 18.5083 36.65 18.8182 38.879 19.4369C44.2028 15.8255 46.5416 16.5757 46.5416 16.5757C48.0597 20.4204 47.1047 23.2593 46.8151 23.9624C48.6033 25.917 49.6855 28.4069 49.6855 31.4544C49.6855 42.1748 43.1606 44.5355 36.9499 45.2264C37.9502 46.0926 38.8416 47.7914 38.8416 50.3953C38.8416 54.1299 38.8093 57.1357 38.8093 58.0552C38.8093 58.7979 39.3113 59.6683 40.7253 59.3942C51.8015 55.6992 59.7832 45.2404 59.7832 32.9121C59.7832 17.4965 47.2954 5 31.8917 5Z" fill="#161614"/>
<path d="M14.4464 44.7614C14.3851 44.9 14.1668 44.9416 13.9684 44.8466C13.7661 44.7555 13.6523 44.5664 13.7179 44.4272C13.7781 44.2844 13.9964 44.2446 14.1983 44.3405C14.4011 44.4313 14.5166 44.6222 14.4464 44.7614V44.7614ZM15.8184 45.9864C15.6854 46.1099 15.4253 46.0526 15.2488 45.8575C15.0663 45.6629 15.0322 45.4028 15.1672 45.2774C15.3043 45.1542 15.5565 45.2117 15.7394 45.4066C15.9219 45.6034 15.9573 45.8619 15.8182 45.9867L15.8184 45.9864ZM16.7597 47.5538C16.5886 47.6727 16.309 47.5613 16.1364 47.313C15.9656 47.065 15.9656 46.7673 16.1402 46.648C16.3134 46.5287 16.5886 46.636 16.7636 46.8822C16.9342 47.1346 16.9342 47.4323 16.7594 47.5541L16.7597 47.5538ZM18.3513 49.3693C18.1984 49.5378 17.8729 49.4927 17.6344 49.2624C17.3908 49.0374 17.3227 48.718 17.4761 48.5492C17.6307 48.3802 17.9582 48.4277 18.1984 48.6561C18.4405 48.8807 18.5145 49.2025 18.3515 49.3693H18.3513ZM20.4084 49.9822C20.3413 50.2007 20.0276 50.3001 19.7117 50.2072C19.3963 50.1116 19.1898 49.8555 19.2534 49.6346C19.319 49.4146 19.634 49.311 19.9523 49.4104C20.2673 49.5056 20.4743 49.7598 20.4086 49.9822H20.4084ZM22.7499 50.2421C22.7578 50.4723 22.4898 50.6632 22.1582 50.6674C21.8246 50.6746 21.5549 50.4883 21.5514 50.262C21.5514 50.0295 21.8132 49.8404 22.1466 49.8349C22.4782 49.8283 22.7499 50.0133 22.7499 50.2421V50.2421ZM25.0499 50.1538C25.0897 50.3784 24.8591 50.6092 24.5299 50.6705C24.2061 50.7296 23.9065 50.591 23.8651 50.3684C23.8249 50.1381 24.0598 49.9076 24.3829 49.8478C24.7128 49.7904 25.0079 49.9255 25.0499 50.1538" fill="#161614"/>
</g>
<defs>
<clipPath id="clip0_2_10">
<rect width="56" height="54.5166" fill="white" transform="translate(4 5)"/>
</clipPath>
</defs>
</svg>
