<svg viewBox="0 0 64 64" fill="none" xmlns="http://www.w3.org/2000/svg">
<path d="M60 32.2516C60 30.3682 59.8331 28.5803 59.547 26.8399H32.6079V37.5917H48.0323C47.341 41.1201 45.3146 44.1 42.3108 46.1264V53.2784H51.513C56.9008 48.2959 60 40.9532 60 32.2516Z" fill="#4285F4"/>
<path d="M32.608 60.2159C40.3321 60.2159 46.7928 57.6412 51.5131 53.2784L42.3109 46.1265C39.7361 47.8429 36.4701 48.8919 32.608 48.8919C25.1461 48.8919 18.8285 43.8617 16.5637 37.0673H7.07544V44.4338C11.7719 53.7791 21.4271 60.2159 32.608 60.2159Z" fill="#34A853"/>
<path d="M16.5636 37.0672C15.9676 35.3508 15.6577 33.5151 15.6577 31.6079C15.6577 29.7007 15.9915 27.865 16.5636 26.1486V18.782H7.07535C5.12047 22.6441 4 26.9829 4 31.6079C4 36.2328 5.12047 40.5717 7.07535 44.4338L16.5636 37.0672Z" fill="#FBBC05"/>
<path d="M32.608 14.324C36.8277 14.324 40.5944 15.7782 43.5744 18.6152L51.7276 10.4619C46.7928 5.83695 40.3321 3 32.608 3C21.4271 3 11.7719 9.43679 7.07544 18.782L16.5637 26.1486C18.8285 19.3542 25.1461 14.324 32.608 14.324Z" fill="#EA4335"/>
</svg>
