<svg viewBox="0 0 64 64" fill="none" xmlns="http://www.w3.org/2000/svg">
<path d="M41.2425 21.4291L46.1104 16.5612L46.4348 14.5115C37.5642 6.44555 23.4634 7.36015 15.467 16.4199C13.2458 18.9362 11.598 22.0733 10.7192 25.3127L12.4627 25.0671L22.1982 23.4617L22.9498 22.693C27.2804 17.9369 34.6026 17.2971 39.6028 21.3437L41.2425 21.4291Z" fill="#EA4335"/>
<path d="M53.0448 25.1696C51.9259 21.0493 49.6288 17.3452 46.4348 14.5117L39.6028 21.3437C42.4877 23.7009 44.1312 27.2521 44.0607 30.9768V32.1895C47.4188 32.1895 50.1413 34.9119 50.1413 38.2699C50.1413 41.6282 47.4188 44.2823 44.0607 44.2823H31.8827L30.687 45.5803V52.8735L31.8827 54.0177H44.0607C52.7954 54.0858 59.9315 47.1284 59.9995 38.3937C60.0406 33.0993 57.4303 28.1359 53.0448 25.1696Z" fill="#4285F4"/>
<path d="M19.7216 54.0178H31.8826V44.2822H19.7216C18.8551 44.2819 18.016 44.0958 17.2281 43.7357L15.5028 44.2651L10.6008 49.1329L10.1738 50.7898C12.9229 52.8655 16.277 54.0327 19.7216 54.0178Z" fill="#34A853"/>
<path d="M19.7216 22.4368C10.9867 22.4889 3.94822 29.6122 4.00029 38.3469C4.02938 43.2246 6.30744 47.8162 10.1739 50.7897L17.2281 43.7356C14.1676 42.3529 12.8076 38.7512 14.1903 35.6909C15.5728 32.6306 19.1748 31.2706 22.2349 32.6531C23.5835 33.2623 24.6634 34.3425 25.2726 35.6909L32.3269 28.6368C29.3254 24.7131 24.6617 22.4191 19.7216 22.4368Z" fill="#FBBC05"/>
</svg>
