<svg viewBox="0 0 64 64" fill="none" xmlns="http://www.w3.org/2000/svg">
<path d="M29.7574 53.4901C34.4742 52.649 39.1905 51.8049 43.9062 50.9578L44.0391 50.9291L36.7612 42.1743C32.7586 37.3593 29.4837 33.4011 29.4837 33.3786C29.4837 33.3354 36.9984 12.4066 37.0408 12.332C37.0548 12.3073 42.1689 21.2365 49.4376 33.9776C56.2427 45.9057 61.8531 55.7404 61.9052 55.8326L62 56L38.8711 55.9969L15.7418 55.9938L29.7574 53.4901ZM2 50.8203C2 50.8079 5.42921 44.7878 9.62053 37.442L17.2411 24.0858L26.1218 16.5489C31.0061 12.4035 35.0157 9.00633 35.0318 9.00017C35.0477 8.994 34.9837 9.1574 34.8889 9.36334C34.7944 9.5696 30.4549 18.9826 25.2457 30.2814L15.7741 50.8249L8.88707 50.8338C5.09937 50.8388 2 50.8326 2 50.8203Z" fill="#0089D6"/>
</svg>
