<svg viewBox="0 0 29 56" fill="none" xmlns="http://www.w3.org/2000/svg">
<path fill-rule="evenodd" clip-rule="evenodd" d="M17.2769 0.393593C16.7627 0.90779 16.7284 1.49055 17.2083 2.09044C17.911 2.99886 19.0766 2.48466 19.0766 1.28487C19.0766 0.0850746 18.0653 -0.411983 17.2769 0.393593ZM8.55259 3.49586C7.88413 4.16431 8.07267 5.31269 8.91253 5.63834C9.92378 6.01542 10.8322 4.38713 10.0609 3.54728C9.70096 3.15306 8.91253 3.11878 8.55259 3.49586ZM16.8485 10.3004C16.8485 5.32983 16.8485 5.29555 17.2256 5.03845C17.7569 4.66137 18.3226 4.69565 18.7339 5.10701C19.0424 5.41553 19.0767 5.67263 19.0767 8.0208V10.5918H21.442C23.0703 10.5918 23.9102 10.6603 24.0987 10.8146C24.6643 11.2088 27.6981 22.0412 28.2466 25.5892C28.6408 28.0916 28.5379 31.2454 27.9895 32.9594C26.7897 36.8158 24.1501 39.5925 19.5224 41.9235C17.0542 43.1747 16.4372 43.7575 15.8544 45.4201C15.3402 46.8941 15.1345 48.2996 15.0146 51.1448L14.9117 53.5787L18.2369 54.6413C20.0708 55.207 21.7505 55.7554 21.9905 55.8411C22.2476 55.9268 19.0939 55.9954 14.2947 55.9954C9.82117 56.0125 6.20465 55.9782 6.23892 55.944C6.2732 55.9097 7.85008 55.3955 9.73547 54.7956C11.6209 54.2128 13.2663 53.6301 13.4034 53.5101C13.5919 53.3387 13.6091 52.8588 13.4377 50.5792C13.1977 47.3226 12.9235 45.9171 12.2893 44.6145C11.6894 43.3976 11.2095 43.0033 9.06701 41.9235C5.12483 39.9524 2.94806 37.8785 1.40547 34.6733C0.325658 32.4452 0 30.954 0 28.1602C0 26.2577 0.0685596 25.4349 0.359938 24.218C1.04553 21.4756 3.70222 12.0658 4.01074 11.3117L4.31926 10.5918H6.30748H8.27857V9.51197C8.27857 8.68925 8.34713 8.34645 8.58709 8.15792C9.04987 7.74656 9.44409 7.678 9.90686 7.88368L10.3354 8.07222V20.7386V33.405L10.7639 33.8164C10.9867 34.0563 11.2952 34.2449 11.4495 34.2449C11.6037 34.2449 11.9122 34.0563 12.1351 33.8164C12.5464 33.4221 12.5635 33.3364 12.5635 30.9197V28.4344L13.4377 28.8972C14.4489 29.4114 16.0258 29.5828 17.1228 29.2914C18.7853 28.8458 20.088 27.4574 20.5507 25.6749C20.8078 24.6808 20.8078 24.4922 20.5507 23.481C19.968 21.0985 18.1683 19.6759 15.7516 19.6759C14.7232 19.6759 14.329 19.7616 13.5234 20.1558L12.5635 20.6529V15.3053L12.5635 14.9921C12.5633 10.8042 12.5633 9.92629 12.9737 9.64296C13.0825 9.56781 13.2203 9.53449 13.3946 9.49234L13.4548 9.47769C13.8148 9.39199 14.0204 9.46055 14.3461 9.80335C14.7917 10.2318 14.7917 10.2661 14.7917 12.8885C14.7917 15.8023 14.8774 16.0766 15.8201 16.0766C16.8142 16.0766 16.8485 15.8537 16.8485 10.3004ZM12.8549 5.24415C12.4607 5.67265 12.4779 6.70104 12.8721 7.04384C13.1977 7.35236 13.8833 7.42092 14.209 7.1981C14.5518 6.97528 14.826 6.27254 14.7232 5.87833C14.5004 4.96991 13.4205 4.60997 12.8549 5.24415ZM13.1635 24.5607C13.1635 23.5323 13.5063 22.9324 14.449 22.2811C16.043 21.2013 18.3911 22.4868 18.3911 24.475C18.3911 26.1033 17.1571 27.286 15.5973 27.166C14.1233 27.046 13.1635 26.0176 13.1635 24.5607Z" fill="#00A3DE"/>
</svg>
