<svg viewBox="0 0 759.04 298.19" fill="none" xmlns="http://www.w3.org/2000/svg">
<defs>
<style>
.cls-1 {
fill: #575757;
}

.cls-2 {
fill: #00a3de;
}
</style>
</defs>
<path class="cls-1" d="M259.12,179.46a28.71,28.71,0,0,1-3.1,13.46,22.43,22.43,0,0,1-9.08,9.36,28.35,28.35,0,0,1-14.17,3.38q-9.83,0-16.21-4.62a24.66,24.66,0,0,1-7.36-8.88,23.58,23.58,0,0,1-2.83-10.78,8.19,8.19,0,0,1,1.69-5.21,5.27,5.27,0,0,1,4.33-2.17,4.58,4.58,0,0,1,3.6,1.69,13.88,13.88,0,0,1,2.51,5,37.25,37.25,0,0,0,2.74,6.59,12.12,12.12,0,0,0,4.15,4.37,12.85,12.85,0,0,0,7,1.71,13.71,13.71,0,0,0,9.71-3.46,11.31,11.31,0,0,0,3.74-8.65,10.5,10.5,0,0,0-2-6.67,12.83,12.83,0,0,0-5.21-3.92,75.79,75.79,0,0,0-8.53-2.87,54.89,54.89,0,0,1-12-4.87,20.76,20.76,0,0,1-7.65-7.61,23.26,23.26,0,0,1-2.84-12,24.24,24.24,0,0,1,3-12.11,20,20,0,0,1,8.65-8.14,29.28,29.28,0,0,1,13.32-2.85,27,27,0,0,1,10.57,1.89,21.59,21.59,0,0,1,7.4,5,20.82,20.82,0,0,1,4.31,6.57,18.26,18.26,0,0,1,1.36,6.7,9.1,9.1,0,0,1-1.7,5.38,5,5,0,0,1-4.24,2.39,4.3,4.3,0,0,1-3.51-1.43,20.23,20.23,0,0,1-2.6-4.71,21.63,21.63,0,0,0-4.35-7.29q-2.54-2.62-8.15-2.62a12.19,12.19,0,0,0-8.4,2.84,8.86,8.86,0,0,0-3.19,6.85,8.08,8.08,0,0,0,1.09,4.28,10,10,0,0,0,3,3.1,18.55,18.55,0,0,0,3.85,2c1.3.48,3.44,1.2,6.43,2.14a86.6,86.6,0,0,1,10.17,3.6,29.05,29.05,0,0,1,7.74,4.79,19,19,0,0,1,5,7.13A27.42,27.42,0,0,1,259.12,179.46Z" transform="translate(-21 -20.97)" />
<path class="cls-1" d="M326.63,135.46H312v60q0,5.19-1.86,7.69a5.73,5.73,0,0,1-4.8,2.51,5.82,5.82,0,0,1-4.87-2.54q-1.87-2.53-1.88-7.66v-60H283.88a6.5,6.5,0,0,1-5.11-1.88,7.23,7.23,0,0,1-1.68-5,7.13,7.13,0,0,1,1.74-5.07,6.59,6.59,0,0,1,5.05-1.86h42.75a6.58,6.58,0,0,1,5.19,1.92,7.25,7.25,0,0,1,1.69,5,7.11,7.11,0,0,1-1.72,5A6.64,6.64,0,0,1,326.63,135.46Z" transform="translate(-21 -20.97)" />
<path class="cls-1" d="M391.1,194.9l-3.17-10.37h-27l-3.17,10.59a41,41,0,0,1-3.17,8.37,4.63,4.63,0,0,1-4.3,2.17,5.75,5.75,0,0,1-4.48-2.31,7.91,7.91,0,0,1-1.95-5.24,14.49,14.49,0,0,1,.45-3.5c.31-1.2.8-2.87,1.5-5l17-53.63c.48-1.54,1.07-3.39,1.74-5.55a31.26,31.26,0,0,1,2.18-5.38,9.88,9.88,0,0,1,3-3.46,8.85,8.85,0,0,1,9.33,0,10,10,0,0,1,3,3.4,26.59,26.59,0,0,1,1.95,4.48q.79,2.4,2,6.4l17.34,53.29q2,6.09,2,8.84a8.22,8.22,0,0,1-1.92,5.27,5.8,5.8,0,0,1-4.65,2.4,5,5,0,0,1-2.71-.71,6,6,0,0,1-1.91-1.91,19.63,19.63,0,0,1-1.65-3.72C392,197.65,391.53,196.17,391.1,194.9ZM364.48,172h19.83l-10-34.09Z" transform="translate(-21 -20.97)" />
<path class="cls-1" d="M446.38,168.93h-4.71v26.53c0,3.49-.61,6.07-1.85,7.72a5.79,5.79,0,0,1-4.85,2.48,5.7,5.7,0,0,1-5-2.59c-1.18-1.73-1.76-4.27-1.76-7.61V131.91c0-3.6.64-6.21,1.94-7.83s3.4-2.42,6.3-2.42h21.87a53.32,53.32,0,0,1,7.74.48,16.69,16.69,0,0,1,5.8,1.94,17.17,17.17,0,0,1,5.52,4.68,21.56,21.56,0,0,1,3.65,7.07,28.71,28.71,0,0,1,1.25,8.53q0,9.24-4.19,14.76T465.4,167a26.53,26.53,0,0,1,6.84,7,71.22,71.22,0,0,1,5.82,9.83,79.2,79.2,0,0,1,4,9.41,22.07,22.07,0,0,1,1.42,5.77,6.92,6.92,0,0,1-.84,3.24,6.52,6.52,0,0,1-2.28,2.54,6.07,6.07,0,0,1-3.35.93,5.67,5.67,0,0,1-3.81-1.33,12,12,0,0,1-2.65-3.35q-1.11-2-3-6l-5.39-11.16A63.91,63.91,0,0,0,457,174.5a13.53,13.53,0,0,0-4.64-4.39A13.17,13.17,0,0,0,446.38,168.93Zm7.7-34.71H441.67v22.71h12.05a27.21,27.21,0,0,0,8.15-1.05,9.24,9.24,0,0,0,5.05-3.55,11.94,11.94,0,0,0,1.74-6.9,12.54,12.54,0,0,0-1.4-6.05,9.2,9.2,0,0,0-3.89-3.92C461.8,134.64,458.7,134.22,454.08,134.22Z" transform="translate(-21 -20.97)" />
<path class="cls-2" d="M546.5,135.46H531.82v60q0,5.19-1.85,7.69a5.73,5.73,0,0,1-4.8,2.51,5.79,5.79,0,0,1-4.87-2.54q-1.87-2.53-1.88-7.66v-60H503.75a6.52,6.52,0,0,1-5.12-1.88,7.23,7.23,0,0,1-1.68-5,7.09,7.09,0,0,1,1.75-5.07,6.58,6.58,0,0,1,5.05-1.86H546.5a6.56,6.56,0,0,1,5.18,1.92,7.26,7.26,0,0,1,1.7,5,7.15,7.15,0,0,1-1.72,5A6.67,6.67,0,0,1,546.5,135.46Z" transform="translate(-21 -20.97)" />
<path class="cls-2" d="M592.4,168.93h-4.71v26.53c0,3.49-.62,6.07-1.85,7.72a5.8,5.8,0,0,1-4.85,2.48,5.7,5.7,0,0,1-5-2.59q-1.77-2.59-1.77-7.61V131.91q0-5.4,2-7.83t6.3-2.42h21.87a53.32,53.32,0,0,1,7.74.48,16.69,16.69,0,0,1,5.8,1.94,17.17,17.17,0,0,1,5.52,4.68,21.56,21.56,0,0,1,3.65,7.07,28.71,28.71,0,0,1,1.24,8.53q0,9.24-4.19,14.76T611.42,167a26.53,26.53,0,0,1,6.84,7,73.28,73.28,0,0,1,5.82,9.83,80.69,80.69,0,0,1,4,9.41,21.8,21.8,0,0,1,1.43,5.77,6.92,6.92,0,0,1-.84,3.24,6.6,6.6,0,0,1-2.28,2.54,6.09,6.09,0,0,1-3.35.93,5.67,5.67,0,0,1-3.81-1.33,12,12,0,0,1-2.65-3.35q-1.11-2-3-6l-5.39-11.16A63.91,63.91,0,0,0,603,174.5a13.55,13.55,0,0,0-4.65-4.39A13.1,13.1,0,0,0,592.4,168.93Zm7.7-34.71H587.69v22.71h12a27.21,27.21,0,0,0,8.15-1.05,9.28,9.28,0,0,0,5.05-3.55,11.94,11.94,0,0,0,1.74-6.9,12.54,12.54,0,0,0-1.4-6.05,9.2,9.2,0,0,0-3.89-3.92C607.81,134.64,604.72,134.22,600.1,134.22Z" transform="translate(-21 -20.97)" />
<path class="cls-2" d="M697.77,134.56h-30.3v20.28h27.9a5.82,5.82,0,0,1,4.6,1.72,6.62,6.62,0,0,1,1.51,4.54,6.94,6.94,0,0,1-1.49,4.59,5.72,5.72,0,0,1-4.62,1.77h-27.9V191h31.34a6,6,0,0,1,4.78,1.83,7.14,7.14,0,0,1,1.61,4.88,7,7,0,0,1-1.61,4.76,6,6,0,0,1-4.78,1.83H662.26c-2.92,0-5-.81-6.31-2.42S654,197.6,654,194V131.91a17,17,0,0,1,.86-5.88,6.22,6.22,0,0,1,2.7-3.33,9.43,9.43,0,0,1,4.68-1h35.51a6,6,0,0,1,4.78,1.78,6.77,6.77,0,0,1,1.56,4.64,6.88,6.88,0,0,1-1.56,4.71A6.05,6.05,0,0,1,697.77,134.56Z" transform="translate(-21 -20.97)" />
<path class="cls-2" d="M772.61,134.56H742.32v20.28h27.89a5.8,5.8,0,0,1,4.6,1.72,6.63,6.63,0,0,1,1.52,4.54,6.89,6.89,0,0,1-1.5,4.59,5.7,5.7,0,0,1-4.62,1.77H742.32V191h31.33a6,6,0,0,1,4.78,1.83,7.14,7.14,0,0,1,1.61,4.88,7,7,0,0,1-1.61,4.76,6,6,0,0,1-4.78,1.83H737.11c-2.93,0-5-.81-6.32-2.42s-1.92-4.23-1.92-7.84V131.91a16.75,16.75,0,0,1,.86-5.88,6.17,6.17,0,0,1,2.69-3.33,9.47,9.47,0,0,1,4.69-1h35.5a6,6,0,0,1,4.78,1.78,6.77,6.77,0,0,1,1.56,4.64,6.88,6.88,0,0,1-1.56,4.71A6,6,0,0,1,772.61,134.56Z" transform="translate(-21 -20.97)" />
<path class="cls-1" d="M97.58,190H29.12a8.11,8.11,0,0,1-5.9-13.68L167.55,23.52a8.11,8.11,0,0,1,13.5,8.4L143.24,133.53A8.11,8.11,0,1,1,128,127.87l23.88-64.16-104,110.06H97.58a8.12,8.12,0,1,1,0,16.23Z" transform="translate(-21 -20.97)" />
<path class="cls-2" d="M33.17,319.16a8.11,8.11,0,0,1-7.6-10.94L63.39,206.6a8.11,8.11,0,0,1,15.21,5.66L54.72,276.42l104-110.06H109a8.12,8.12,0,0,1,0-16.23h68.47a8.12,8.12,0,0,1,5.9,13.69L39.07,316.62A8.11,8.11,0,0,1,33.17,319.16Z" transform="translate(-21 -20.97)" />
</svg>
