<svg fill="none" xmlns="http://www.w3.org/2000/svg" viewBox="1343 1332 1931 2670"> <path d="M3033.36 2452.78H2386.63L2386.08 1572.86C2386.08 1531.51 2331.9 1516.36 2310.71 1551.93L1548.9 2819.35C1545.16 2825.54 1543.12 2832.6 1543.01 2839.83C1542.89 2847.05 1544.69 2854.18 1548.23 2860.48C1551.77 2866.78 1556.91 2872.03 1563.14 2875.7C1569.37 2879.36 1576.47 2881.31 1583.7 2881.34H2230.64L2231.14 3761.14C2231.14 3802.49 2285.37 3817.64 2306.52 3782.07L3068.2 2514.6C3071.9 2508.42 3073.9 2501.37 3074 2494.17C3074.09 2486.96 3072.28 2479.86 3068.74 2473.59C3065.2 2467.31 3060.07 2462.08 3053.85 2458.42C3047.64 2454.77 3040.57 2452.83 3033.36 2452.78Z" fill="#F3F9FF"></path> </svg>
