<svg viewBox="0 0 154 279" fill="none" xmlns="http://www.w3.org/2000/svg">
<path d="M71.591 158.107H7.5906C6.108 158.107 4.6579 157.673 3.4192 156.858C2.1805 156.044 1.2076 154.884 0.620495 153.523C0.0333951 152.161 -0.142202 150.658 0.115498 149.198C0.373198 147.738 1.0529 146.385 2.0706 145.307L137.071 2.37691C138.273 1.10453 139.878 0.286917 141.614 0.062587C143.351 -0.161743 145.111 0.221002 146.597 1.14598C148.084 2.07096 149.205 3.48129 149.77 5.13807C150.336 6.79484 150.311 8.59618 149.701 10.2369L114.331 105.287C113.983 106.221 113.454 107.078 112.775 107.808C112.096 108.538 111.28 109.127 110.373 109.542C109.466 109.956 108.487 110.188 107.49 110.224C106.494 110.26 105.5 110.1 104.566 109.752C103.631 109.404 102.775 108.875 102.045 108.196C101.314 107.517 100.725 106.701 100.311 105.794C99.473 103.963 99.398 101.874 100.101 99.9869L122.441 39.9869L25.1906 142.987H71.591C73.604 142.987 75.534 143.787 76.958 145.21C78.381 146.633 79.181 148.564 79.181 150.577C79.181 152.59 78.381 154.52 76.958 155.944C75.534 157.367 73.604 158.167 71.591 158.167V158.107Z" fill="#FFFFFF"/>
<path d="M11.3416 278.917C10.1167 278.917 8.9101 278.62 7.8249 278.052C6.7397 277.484 5.808 276.662 5.1094 275.656C4.4108 274.65 3.9661 273.49 3.8132 272.275C3.6604 271.059 3.8039 269.825 4.2316 268.677L39.6016 173.617C40.3044 171.73 41.728 170.2 43.5593 169.362C45.3906 168.525 47.4795 168.449 49.3666 169.152C51.2536 169.855 52.7841 171.279 53.6214 173.11C54.4588 174.941 54.5344 177.03 53.8316 178.917L31.5016 238.917L128.742 135.967H82.312C80.299 135.967 78.368 135.168 76.945 133.744C75.521 132.321 74.722 130.39 74.722 128.377C74.722 126.364 75.521 124.434 76.945 123.01C78.368 121.587 80.299 120.787 82.312 120.787H146.312C147.801 120.778 149.261 121.207 150.509 122.021C151.757 122.835 152.738 123.998 153.331 125.365C153.923 126.732 154.101 128.243 153.841 129.71C153.582 131.178 152.897 132.536 151.872 133.617L16.8616 276.537C16.1539 277.291 15.2986 277.892 14.349 278.301C13.3994 278.711 12.3757 278.92 11.3416 278.917Z" fill="#00A3DE"/>
</svg>
