<svg viewBox="0 0 1213 517" fill="none" xmlns="http://www.w3.org/2000/svg">
<g clip-path="url(#clip0_3_483)">
<path d="M206.357 215.091C206.357 243.751 181.574 257.551 153.363 257.551C127.001 257.551 107.475 246.403 98.0002 225.972L127.529 209.251C131.22 220.15 140.184 226.508 153.363 226.508C164.191 226.508 171.554 222.793 171.554 215.096C171.54 195.714 103.536 206.336 103.536 159.629C103.536 132.564 126.473 117.437 153.615 117.437C174.969 117.437 193.422 127.255 203.695 145.565L174.694 161.487C170.737 152.994 163.356 147.954 153.602 147.954C145.165 147.954 138.312 151.668 138.312 158.853C138.339 178.457 206.357 166.264 206.357 215.091Z" fill="#0B263E"/>
<path d="M447.116 121.151V253.841H413.107V238.179C403.633 250.117 389.38 257.551 370.134 257.551C335.069 257.551 306.068 227.03 306.068 187.494C306.068 147.958 335.069 117.437 370.134 117.437C389.38 117.437 403.615 124.866 413.107 136.81V121.151H447.116ZM413.107 187.494C413.107 165.201 397.551 150.074 376.459 150.074C355.633 150.074 340.077 165.201 340.077 187.494C340.077 209.787 355.615 224.909 376.459 224.909C397.573 224.909 413.107 209.791 413.107 187.494Z" fill="#0B263E"/>
<path d="M540.141 118.513V156.723C522.478 154.602 500.069 162.563 500.069 190.428V253.841H466.042V121.152H500.051V143.971C506.904 125.929 523.516 118.513 540.141 118.513Z" fill="#0B263E"/>
<path d="M709.328 154.057V209.251C709.328 223.583 719.611 223.847 739.105 222.789V253.841C691.386 259.15 675.306 245.086 675.306 209.26V154.057H652.369V121.152H675.306V84H709.328V121.152H739.105V154.057H709.328Z" fill="#0B263E"/>
<path d="M827.371 118.513V156.723C809.708 154.602 787.299 162.563 787.299 190.428V253.841H753.29V121.152H787.299V143.971C794.148 125.929 810.76 118.513 827.371 118.513Z" fill="#0B263E"/>
<path d="M904.642 226.503C917.825 226.503 928.369 220.931 934.171 213.234L961.588 229.155C949.199 247.202 929.425 257.551 904.114 257.551C859.824 257.551 831.878 227.03 831.878 187.494C831.878 147.958 860.09 117.437 901.48 117.437C940.496 117.437 968.18 148.485 968.18 187.494C968.158 192.217 967.718 196.928 966.862 201.572H867.471C872.199 219.074 886.718 226.503 904.642 226.503ZM934.171 175.019C929.953 155.914 915.714 148.226 901.48 148.226C883.289 148.226 870.895 158.044 866.943 175.019H934.171Z" fill="#0B263E"/>
<path d="M1050.17 226.503C1063.35 226.503 1073.89 220.931 1079.69 213.234L1107.11 229.155C1094.72 247.202 1074.95 257.551 1049.64 257.551C1005.35 257.551 977.402 227.03 977.402 187.494C977.402 147.958 1005.61 117.437 1047 117.437C1086.02 117.437 1113.7 148.485 1113.7 187.494C1113.68 192.217 1113.24 196.928 1112.39 201.572H1012.99C1017.74 219.074 1032.24 226.503 1050.17 226.503ZM1079.69 175.019C1075.48 155.914 1061.24 148.226 1047 148.226C1028.81 148.226 1016.42 158.044 1012.47 175.019H1079.69Z" fill="#0B263E"/>
<path d="M269.69 154.057V209.251C269.69 223.583 279.972 223.847 299.467 222.789V253.841C251.747 259.15 235.663 245.086 235.663 209.26V154.057H212.744V121.152H235.677V84H269.69V121.152H299.467V154.057H269.69Z" fill="#0B263E"/>
<path d="M638.645 173.889H599.267L599.244 119.944C599.246 119.399 599.069 118.868 598.743 118.434C598.416 117.999 597.956 117.684 597.435 117.537C596.913 117.39 596.358 117.42 595.855 117.621C595.351 117.822 594.927 118.183 594.647 118.65L548.263 196.368C548.034 196.747 547.91 197.18 547.902 197.623C547.894 198.066 548.004 198.503 548.219 198.89C548.434 199.277 548.747 199.599 549.127 199.824C549.506 200.048 549.938 200.168 550.379 200.169H589.77L589.801 254.114C589.798 254.66 589.973 255.191 590.3 255.627C590.626 256.063 591.085 256.378 591.607 256.525C592.129 256.672 592.685 256.643 593.188 256.441C593.692 256.239 594.116 255.876 594.394 255.408L640.752 177.69C640.978 177.312 641.102 176.88 641.109 176.438C641.116 175.996 641.008 175.56 640.794 175.174C640.58 174.788 640.268 174.466 639.891 174.241C639.514 174.015 639.084 173.894 638.645 173.889V173.889Z" fill="#0B263E"/>
</g>
<path d="M132.097 435.551V356.457H101.655V335.261H188.857V356.457H158.415V435.551H132.097ZM229.784 435.551V335.261H256.101V373.955H296.501V335.261H322.819V435.551H296.501V395.435H256.101V435.551H229.784ZM371.211 435.551V335.261H397.528V435.551H371.211ZM445.956 435.551V335.261H493.327C504.897 335.261 513.812 338.012 520.071 343.512C526.425 349.013 529.602 356.647 529.602 366.415C529.602 372.959 528.18 378.554 525.335 383.201C522.49 387.754 518.364 391.31 512.959 393.871C507.553 396.336 501.104 397.569 493.612 397.569L494.892 394.013H502.005C506.178 394.013 509.876 395.151 513.101 397.427C516.325 399.703 518.981 402.88 521.067 406.958L536.288 435.551H507.553L491.193 403.544C490.15 401.458 488.585 400.035 486.499 399.276C484.507 398.518 482.231 398.138 479.671 398.138H472.273V435.551H445.956ZM472.273 379.503H488.775C493.896 379.503 497.785 378.507 500.44 376.515C503.095 374.429 504.423 371.347 504.423 367.269C504.423 363.286 503.095 360.298 500.44 358.307C497.785 356.315 493.896 355.319 488.775 355.319H472.273V379.503ZM577.242 435.551V335.261H617.643C629.498 335.261 639.503 337.3 647.659 341.378C655.815 345.362 661.979 351.099 666.152 358.591C670.42 365.989 672.554 374.903 672.554 385.335C672.554 395.673 670.42 404.587 666.152 412.079C661.979 419.571 655.815 425.357 647.659 429.434C639.503 433.512 629.498 435.551 617.643 435.551H577.242ZM603.56 414.213H615.936C626.273 414.213 633.908 411.842 638.839 407.1C643.865 402.359 646.379 395.104 646.379 385.335C646.379 375.472 643.865 368.217 638.839 363.57C633.908 358.828 626.273 356.457 615.936 356.457H603.56V414.213ZM789.247 435.551V335.261H861.229V355.319H814.427V374.524H857.815V394.724H814.427V415.351H861.229V435.551H789.247ZM929.439 435.551V387.611L934.703 402.121L889.75 335.261H920.05L945.514 375.52H940.393L965.856 335.261H995.161L950.493 402.121L955.756 387.611V435.551H929.439ZM1035.29 435.551V335.261H1107.27V355.319H1060.47V374.524H1103.86V394.724H1060.47V415.351H1107.27V435.551H1035.29Z" fill="#1985A1"/>
<defs>
<clipPath id="clip0_3_483">
<rect width="1015.7" height="173.552" fill="white" transform="translate(98 84)"/>
</clipPath>
</defs>
</svg>
