<svg viewBox="1343 1332 1931 2670" fill="none" xmlns="http://www.w3.org/2000/svg">
<path d="M3032.62 2452.45H2386.31L2385.76 1572.53C2385.76 1531.18 2331.61 1516.02 2310.44 1551.6L1549.12 2819.02C1545.38 2825.2 1543.35 2832.27 1543.24 2839.49C1543.12 2846.72 1544.92 2853.85 1548.45 2860.15C1551.99 2866.45 1557.13 2871.7 1563.36 2875.37C1569.59 2879.03 1576.67 2880.98 1583.9 2881.01H2230.42L2230.92 3760.81C2230.92 3802.16 2285.12 3817.31 2306.25 3781.73L3067.44 2514.27C3071.14 2508.09 3073.13 2501.04 3073.23 2493.84C3073.32 2486.63 3071.51 2479.53 3067.97 2473.25C3064.44 2466.98 3059.31 2461.75 3053.1 2458.09C3046.89 2454.44 3039.82 2452.49 3032.62 2452.45Z" fill="#FAD32D"/>
</svg>
