<svg viewBox="0 0 91 56" fill="none" xmlns="http://www.w3.org/2000/svg">
<g clip-path="url(#clip0)">
<path d="M14.0621 32.0061C16.4821 32.0061 18.4438 30.0444 18.4438 27.6244C18.4438 25.2044 16.4821 23.2427 14.0621 23.2427H5.09415C2.67419 23.2427 0.71242 25.2044 0.71242 27.6244C0.71242 30.0444 2.67419 32.0061 5.09415 32.0061H14.0621Z" fill="#4F4F4F"/>
<path d="M89.352 23.8733C85.5211 16.5089 80.33 10.4941 74.3338 6.45912C69.7137 2.95316 64.0735 1.00763 58.2468 0.910156C58.1635 0.910156 58.0803 0.944409 57.997 0.944409H28.6962C25.6317 1.02627 23.3687 2.2791 23.3687 5.30514C23.3687 7.81496 25.2493 9.62875 27.941 9.62875H33.7971C36.4406 9.62875 40.0439 12.3341 40.0439 16.1558C40.0439 19.9775 36.9756 23.216 33.7902 23.216H30.6533C27.587 23.216 25.2689 24.6349 25.2689 27.6617C25.2689 30.6884 27.587 32.0684 30.6533 32.0684H35.9277C38.7523 32.0684 41.3612 35.6028 41.3612 39.1395C41.3612 42.6762 38.4955 46.3237 35.7195 46.358H34.2482C31.1819 46.358 29.0242 47.7959 29.0242 50.8227C29.0242 53.8495 31.1819 55.064 34.2482 55.064H55.9913C62.4317 55.064 70.5654 52.2415 74.66 49.0218C80.5451 44.9936 85.6044 39.0131 89.352 31.7857C90.6328 29.2997 90.6328 26.3593 89.352 23.8733ZM44.9424 28.149C44.9387 21.0741 50.669 15.3347 57.7439 15.3271C64.8188 15.3196 70.5613 21.0468 70.5726 28.1217C70.5688 35.1966 64.8324 40.93 57.7575 40.93C50.6826 40.9573 44.9462 35.2239 44.9424 28.149Z" fill="#4F4F4F"/>
<path d="M13.5612 9.54731C16.012 9.54731 17.9988 7.5605 17.9988 5.10965C17.9988 2.6588 16.012 0.671997 13.5612 0.671997C11.1103 0.671997 9.12354 2.6588 9.12354 5.10965C9.12354 7.5605 11.1103 9.54731 13.5612 9.54731Z" fill="#4F4F4F"/>
<path d="M19.2399 55.3128C21.7167 55.3128 23.7245 53.305 23.7245 50.8282C23.7245 48.3515 21.7167 46.3437 19.2399 46.3437C16.7632 46.3437 14.7554 48.3515 14.7554 50.8282C14.7554 53.305 16.7632 55.3128 19.2399 55.3128Z" fill="#4F4F4F"/>
</g>
<defs>
<clipPath id="clip0">
<rect width="90.5333" height="56" fill="white"/>
</clipPath>
</defs>
</svg>
