<svg viewBox="0 0 104 128" fill="#4F4F4F" xmlns="http://www.w3.org/2000/svg">
<path fill-rule="evenodd" clip-rule="evenodd" d="M77.8214 0C78.0613 0 83.2614 4.96 90.7813 12.48C98.1814 19.84 104.101 25.84 103.981 25.84C103.861 25.84 100.421 24.08 96.3014 21.96C92.2614 19.84 88.5814 18.08 88.1413 18.04H88.1013C87.5014 18.04 86.6214 18.88 83.2214 22.84C78.2214 28.6 76.3814 31.36 75.2614 34.56C74.2614 37.56 74.3813 39 76.1413 44.32C79.3814 54.08 79.5814 61.08 76.8214 68.92C74.9014 74.4 72.9813 77.4 68.3813 82C65.2613 85.16 63.7813 86.4 61.3013 87.92C55.6613 91.32 35.7413 102.48 33.9813 103.2L32.3013 103.88C32.3013 103.88 0.0613395 71.44 0.0213395 70.88C-0.258661 69.28 12.6213 46.4 17.5813 39.64C21.0213 34.88 26.4213 29.84 30.1413 27.88C34.5813 25.56 39.1813 24.4 44.2613 24.4C48.7013 24.4 53.5413 25.32 58.9013 27.08C62.1013 28.12 64.1814 28.64 65.9414 28.64C67.5414 28.64 68.9413 28.2 70.7013 27.36C73.9813 25.76 76.6614 23.76 81.5414 19.28L85.7414 15.44L82.0214 8.2C79.9414 4.24 78.0613 0.56 77.8214 0.04V0ZM66.1413 79.72C70.4213 75.48 72.0613 72.92 73.8214 67.88C76.3413 60.72 76.1413 54.4 73.1413 45.36C71.2614 39.72 70.9414 37.48 72.2614 33.56C72.7813 32.04 73.4613 30.64 74.4213 29.04C73.6613 29.48 72.9014 29.88 72.1013 30.28C70.3813 31.12 68.4213 31.88 65.9414 31.88C63.6213 31.88 61.1413 31.24 57.9013 30.16C52.7813 28.44 48.3413 27.64 44.2613 27.64C39.7413 27.64 35.6213 28.68 31.6213 30.76C28.3813 32.44 23.3413 37.16 20.1413 41.52C15.6213 47.64 5.94134 65 3.62134 70.12C7.78134 74.48 22.6613 89.6 33.0613 100.08C36.0213 98.6 53.9013 88.6 59.6614 85.16C61.8614 83.8 63.1413 82.72 66.1413 79.72ZM34.8622 116.919C36.789 123.317 38.1992 128 32.3011 128C26.4029 128 27.8132 123.317 29.74 116.919C30.9232 112.99 32.3011 108.415 32.3011 103.88C32.3011 108.415 33.679 112.99 34.8622 116.919Z" />
</svg>
